<svg width="660" height="331" viewBox="0 0 660 331" fill="none" xmlns="http://www.w3.org/2000/svg">
<g clip-path="url(#clip0_153_524)">
<path d="M217.351 330.854C197.436 330.854 177.551 330.498 157.695 329.785C129.325 328.766 99.9874 327.713 72.7197 312.589C53.6448 302.011 36.751 285.038 23.8652 263.506C15.2525 248.912 8.93727 233.078 5.14138 216.563C-1.93941 186.494 -1.69823 155.164 5.84464 125.207C8.48795 114.937 12.1319 104.95 16.7243 95.39C36.6095 54.2117 72.8787 26.5698 116.232 19.5525C116.59 19.5061 116.953 19.4983 117.312 19.5295C117.507 19.5399 117.702 19.5511 117.9 19.5428L118.155 19.4617C118.809 19.2344 119.48 19.0621 120.163 18.9464C187.026 8.99243 257.709 29.1327 324.567 77.1885C376.262 114.35 444.772 134.361 534.012 138.365L535.279 138.431C560.121 139.858 584.151 150.1 604.774 168.051C625.129 185.769 640.412 209.407 648.971 236.412C650.023 239.705 650.988 243.132 651.838 246.598C652.629 249.819 652.573 253.19 651.676 256.384C650.778 259.577 649.069 262.484 646.715 264.821V264.827L646.493 265.056C645.958 265.587 645.395 266.098 644.819 266.573L644.143 267.131C638.44 271.828 633.935 275.54 628.544 278.422C624.949 280.331 621.125 281.775 617.165 282.718C595.418 288.02 573.334 292.936 551.525 297.329C509.173 305.869 465.704 312.913 422.327 318.266C354.323 326.652 285.87 330.855 217.351 330.854ZM116.805 20.9879C116.672 20.9867 116.539 20.9957 116.407 21.0149C73.4587 27.9666 37.5328 55.3371 17.8448 96.1078C13.2977 105.573 9.68981 115.461 7.07278 125.63C-0.401362 155.321 -0.639542 186.372 6.37827 216.174C10.137 232.532 16.391 248.214 24.9205 262.668C37.6802 283.99 54.4013 300.792 73.2762 311.259C100.299 326.247 129.498 327.295 157.736 328.309C246.053 331.464 334.481 327.616 422.19 316.799C465.539 311.449 508.979 304.409 551.304 295.875C573.098 291.485 595.167 286.573 616.899 281.274C620.764 280.354 624.496 278.946 628.004 277.083C633.287 274.259 637.748 270.583 643.397 265.93L644.073 265.373C644.568 264.964 645.054 264.527 645.518 264.073L645.652 263.933C650.294 259.255 652.099 253.082 650.604 246.999V246.999C649.763 243.569 648.809 240.179 647.767 236.92C630.283 181.754 585.053 142.768 535.217 139.906L533.957 139.839C493.194 138.01 457.522 132.943 424.909 124.348C385.977 114.087 351.989 98.6413 323.888 78.4404C257.285 30.5688 186.897 10.5035 120.326 20.4102C119.704 20.5175 119.092 20.6761 118.497 20.8845L118.037 21.0131C117.776 21.0248 117.514 21.0217 117.253 21.0037C117.1 20.9958 116.951 20.9879 116.805 20.9879Z" fill="#F0F0F0"/>
<path d="M206.157 107.796C204.313 106.028 202.427 96.1635 200.074 95.1621C201.833 99.0506 200.556 100.08 200.546 104.348C200.568 106.771 200.285 109.187 199.704 111.54H159.832V80.4223C159.831 77.6263 160.382 74.8577 161.452 72.2745C162.522 69.6913 164.09 67.3442 166.067 65.3671C168.044 63.3901 170.392 61.8218 172.975 60.7518C175.558 59.6819 178.326 59.1313 181.122 59.1313C182.19 59.1522 183.25 59.3074 184.278 59.5933C187.705 60.5186 190.829 62.3289 193.336 64.8425C195.842 67.356 197.644 70.4846 198.56 73.9143C201.6 85.0246 206.434 103.519 206.157 107.796Z" fill="#2F2E41"/>
<path d="M162.171 146.077L162.191 121.822L147.933 123.097L152.965 138.394L150.61 176.843C149.468 177.1 148.425 177.683 147.609 178.522C146.792 179.36 146.237 180.419 146.012 181.567C145.786 182.716 145.9 183.905 146.339 184.99C146.778 186.076 147.523 187.01 148.483 187.679C149.444 188.348 150.578 188.723 151.748 188.758C152.918 188.794 154.073 188.488 155.073 187.878C156.072 187.268 156.872 186.381 157.376 185.325C157.879 184.268 158.065 183.088 157.909 181.927L162.171 146.077Z" fill="#FFB6B6"/>
<path d="M190.23 319.398L195.989 319.398L198.73 297.181H190.228L190.23 319.398Z" fill="#FFB6B6"/>
<path d="M188.278 316.557L197.384 316.013V319.914L206.041 325.893C206.468 326.188 206.79 326.612 206.96 327.104C207.129 327.595 207.137 328.127 206.982 328.623C206.828 329.12 206.519 329.553 206.1 329.861C205.682 330.169 205.176 330.335 204.656 330.335H193.816L191.947 326.476L191.218 330.335H187.13L188.278 316.557Z" fill="#2F2E41"/>
<path d="M156.924 319.398L162.685 319.398L165.424 297.181H156.923L156.924 319.398Z" fill="#FFB6B6"/>
<path d="M154.974 316.557L164.079 316.013V319.914L172.736 325.893C173.163 326.188 173.486 326.612 173.655 327.104C173.824 327.595 173.832 328.127 173.678 328.623C173.523 329.12 173.214 329.553 172.795 329.861C172.377 330.169 171.871 330.335 171.351 330.335H160.511L158.642 326.476L157.913 330.335H153.826L154.974 316.557Z" fill="#2F2E41"/>
<path d="M185.1 95.6301L173.168 95.864L164.745 104.755L157.992 105.745C154.938 106.193 152.129 107.676 150.037 109.946C147.944 112.216 146.694 115.135 146.496 118.216L147.665 124.642H154.684L158.745 148.483C157.166 152.506 157.059 155.682 160.3 156.929L170.36 175.88L200.074 162.544C201.581 159.954 202.064 157.352 200.523 154.821L202.647 118.325H209.79C209.79 111.499 207.481 105.744 200.697 104.985C198.003 104.693 195.297 104.538 192.587 104.521L185.1 95.6301Z" fill="#E6E6E6"/>
<path d="M200.074 162.544C200.074 162.544 171.062 167.692 160.299 156.929C160.299 156.929 159.207 158.784 157.56 161.861C157.087 162.745 156.172 163.345 155.62 164.416C155.118 165.39 153.827 166.587 153.28 167.692C152.84 168.581 153.546 169.742 153.088 170.702C147.577 182.263 141.137 198.57 142.518 209.338C143.408 216.282 145.247 232.44 147.184 249.795C147.335 251.151 146.109 252.892 146.261 254.259C146.405 255.548 147.926 256.461 148.069 257.753C148.164 258.611 147.102 259.486 147.197 260.342C147.301 261.282 148.563 262.204 148.666 263.14C151.319 287.103 153.748 309.475 153.748 309.475H167.318L169.879 258.379L167.786 239.753L172.7 202.085L179.485 237.882L180.357 258.028L187.528 310.411H200.074V259.701L201.009 257.067L200.074 253.688L201.009 250.048L200.074 246.083V162.544Z" fill="#2F2E41"/>
<path d="M188.763 88.7105C186.914 91.1658 184.285 92.9185 181.307 93.6798C178.33 94.4411 175.182 94.1656 172.382 92.8988C169.581 91.632 167.296 89.4494 165.902 86.7104C164.508 83.9714 164.089 80.8393 164.713 77.83C165.337 74.8207 166.967 72.1136 169.335 70.1545C171.703 68.1955 174.667 67.1012 177.74 67.0521C180.813 67.0029 183.811 68.0017 186.241 69.884C188.67 71.7663 190.386 74.4199 191.106 77.4077C191.145 77.5698 191.178 77.731 191.209 77.8983C191.59 79.7711 191.568 81.7032 191.146 83.567C190.725 85.4308 189.912 87.1839 188.763 88.7105Z" fill="#FFB6B6"/>
<path d="M185.942 80.9931C185.655 79.5531 184.93 78.2372 183.865 77.2262C183.97 78.6062 183.778 79.9927 183.303 81.2926C179.746 81.6076 176.172 80.8998 173.004 79.2524C170.617 77.6334 167.581 77.7737 164.043 79.2524C164.043 77.5318 164.381 75.8279 165.04 74.2382C165.698 72.6485 166.663 71.204 167.88 69.9874C169.097 68.7707 170.541 67.8056 172.131 67.1472C173.721 66.4888 175.424 66.1501 177.145 66.1503H179.485C182.959 66.1509 186.292 67.5315 188.749 69.9885C191.206 72.4455 192.586 75.7777 192.587 79.2524C190.427 80.0269 188.204 80.6094 185.942 80.9931Z" fill="#2F2E41"/>
<path d="M83.5834 247.985C104.372 247.985 121.224 231.132 121.224 210.344C121.224 189.556 104.372 172.704 83.5834 172.704C62.7951 172.704 45.9429 189.556 45.9429 210.344C45.9429 231.132 62.7951 247.985 83.5834 247.985Z" fill="#F0F0F0"/>
<path d="M323.45 75.281C344.238 75.281 361.09 58.4288 361.09 37.6405C361.09 16.8522 344.238 0 323.45 0C302.661 0 285.809 16.8522 285.809 37.6405C285.809 58.4288 302.661 75.281 323.45 75.281Z" fill="#F0F0F0"/>
<path d="M622.359 253.889C643.148 253.889 660 237.037 660 216.248C660 195.46 643.148 178.608 622.359 178.608C601.571 178.608 584.719 195.46 584.719 216.248C584.719 237.037 601.571 253.889 622.359 253.889Z" fill="#F0F0F0"/>
<path d="M391.35 41.7454V127.098C391.35 128.871 390.651 130.572 389.404 131.832C388.157 133.093 386.463 133.81 384.69 133.828C384.666 133.831 384.641 133.832 384.617 133.831H374.682C366.734 133.831 359.111 130.674 353.491 125.054C347.87 119.433 344.713 111.81 344.713 103.862V41.7454C344.713 39.9595 345.422 38.2468 346.685 36.9841C347.948 35.7213 349.661 35.0119 351.446 35.0119H355.472C353.607 40.4518 378.916 42.742 380.306 35.0119H384.617C386.402 35.0119 388.115 35.7213 389.378 36.9841C390.641 38.2469 391.35 39.9596 391.35 41.7454Z" fill="#00AEEF"/>
<path d="M361.87 28.6295C361.87 28.3955 361.963 28.1713 362.129 28.0058C362.294 27.8404 362.519 27.7473 362.753 27.747H368.753C368.987 27.7477 369.211 27.841 369.376 28.0064C369.541 28.1718 369.633 28.3959 369.633 28.6295C369.633 28.8631 369.541 29.0872 369.376 29.2526C369.211 29.418 368.987 29.5113 368.753 29.5119H362.753C362.519 29.5117 362.294 29.4186 362.129 29.2532C361.963 29.0878 361.87 28.8635 361.87 28.6295Z" fill="#3F3D56"/>
<path d="M386.678 144.658H348.73C345.786 144.654 342.964 143.483 340.882 141.402C338.8 139.32 337.629 136.497 337.625 133.553V73.8882C337.417 73.7386 337.247 73.5414 337.13 73.3131C337.013 73.0848 336.953 72.8319 336.953 72.5754V66.5747C336.953 66.3183 337.013 66.0654 337.13 65.8371C337.247 65.6089 337.417 65.4118 337.625 65.2622V63.6517C337.417 63.5022 337.247 63.3051 337.13 63.0768C337.013 62.8486 336.953 62.5957 336.953 62.3392V56.3383C336.953 56.0818 337.013 55.8289 337.13 55.6007C337.247 55.3724 337.417 55.1753 337.625 55.0258V52.115C337.368 51.9768 337.153 51.7713 337.004 51.5205C336.854 51.2696 336.776 50.9828 336.776 50.6908V44.6902C336.776 44.3981 336.854 44.1113 337.004 43.8604C337.153 43.6095 337.368 43.4039 337.625 43.2656V35.2898C337.629 32.3456 338.8 29.5231 340.882 27.4413C342.964 25.3595 345.786 24.1885 348.73 24.1852H386.678C389.622 24.1885 392.445 25.3595 394.526 27.4413C396.608 29.5231 397.779 32.3457 397.783 35.2898V52.6754C397.983 52.8005 398.147 52.9744 398.262 53.1807C398.376 53.387 398.436 53.619 398.436 53.8549V65.2968C398.436 65.5328 398.376 65.7648 398.262 65.9712C398.147 66.1776 397.983 66.3515 397.783 66.4767V133.553C397.779 136.497 396.608 139.32 394.526 141.402C392.445 143.483 389.622 144.654 386.678 144.658ZM348.73 25.6613C346.178 25.6642 343.73 26.6795 341.925 28.4846C340.12 30.2897 339.104 32.737 339.101 35.2898V44.5212L338.392 44.5486C338.355 44.5499 338.32 44.5653 338.294 44.5917C338.268 44.618 338.253 44.6533 338.252 44.6902V50.6908C338.253 50.7277 338.268 50.7629 338.294 50.7892C338.32 50.8155 338.355 50.831 338.392 50.8324L339.101 50.8595V56.0622L338.54 56.2006C338.509 56.2081 338.481 56.2256 338.461 56.2505C338.441 56.2754 338.43 56.3063 338.429 56.3382V62.3392C338.43 62.3712 338.441 62.402 338.461 62.4269C338.481 62.4518 338.509 62.4694 338.54 62.4769L339.101 62.6153V66.2986L338.54 66.437C338.509 66.4445 338.481 66.4621 338.461 66.487C338.441 66.5119 338.43 66.5427 338.429 66.5747V72.5753C338.43 72.6074 338.441 72.6383 338.461 72.6632C338.481 72.6882 338.509 72.7058 338.54 72.7133L339.101 72.8517V133.553C339.104 136.106 340.12 138.553 341.925 140.358C343.73 142.163 346.178 143.179 348.73 143.182H386.678C389.231 143.179 391.678 142.163 393.483 140.358C395.288 138.553 396.303 136.106 396.306 133.553V65.2129H396.96V53.9392H396.306V35.2898C396.303 32.737 395.288 30.2897 393.483 28.4846C391.678 26.6796 389.231 25.6642 386.678 25.6613L348.73 25.6613Z" fill="#3F3D56"/>
<path d="M372.107 29.5119C372.594 29.5119 372.989 29.1169 372.989 28.6295C372.989 28.1421 372.594 27.747 372.107 27.747C371.619 27.747 371.224 28.1421 371.224 28.6295C371.224 29.1169 371.619 29.5119 372.107 29.5119Z" fill="#3F3D56"/>
<path d="M180.143 199.571H81.4016C79.9994 199.567 78.6556 199.008 77.664 198.017C76.6724 197.026 76.1137 195.682 76.1099 194.28V146.167C76.1135 144.765 76.672 143.421 77.6635 142.429C78.655 141.438 79.9987 140.879 81.4009 140.875H180.142C181.545 140.879 182.888 141.437 183.88 142.429C184.872 143.42 185.43 144.764 185.434 146.166V194.279C185.431 195.681 184.872 197.025 183.881 198.016C182.889 199.008 181.545 199.567 180.143 199.571Z" fill="white"/>
<path d="M180.143 199.571H81.4016C79.9994 199.567 78.6556 199.008 77.664 198.017C76.6724 197.026 76.1137 195.682 76.1099 194.28V146.167C76.1135 144.765 76.672 143.421 77.6635 142.429C78.655 141.438 79.9987 140.879 81.4009 140.875H180.142C181.545 140.879 182.888 141.437 183.88 142.429C184.872 143.42 185.43 144.764 185.434 146.166V194.279C185.431 195.681 184.872 197.025 183.881 198.016C182.889 199.008 181.545 199.567 180.143 199.571ZM81.4016 142.351C80.3904 142.354 79.4215 142.757 78.7066 143.472C77.9916 144.187 77.5888 145.156 77.586 146.168V194.279C77.5889 195.29 77.9919 196.259 78.707 196.974C79.4221 197.689 80.3911 198.092 81.4023 198.095H180.142C181.153 198.092 182.122 197.689 182.837 196.974C183.552 196.259 183.955 195.289 183.958 194.278V146.167C183.955 145.156 183.552 144.187 182.837 143.472C182.122 142.757 181.153 142.354 180.142 142.351L81.4016 142.351Z" fill="#3F3D56"/>
<path d="M136.064 192.46C116.59 192.46 96.2843 192.274 88.7079 192.154C87.7111 192.133 86.7618 191.724 86.0627 191.013C85.3636 190.302 84.9702 189.346 84.9663 188.349V148.522C84.9667 148.165 85.1085 147.823 85.3606 147.57C85.6127 147.318 85.9547 147.175 86.3118 147.174H175.229C175.586 147.174 175.928 147.316 176.181 147.568C176.433 147.82 176.576 148.162 176.577 148.519V175.54C176.561 179.951 174.816 184.18 171.717 187.319C168.619 190.458 164.413 192.258 160.003 192.333C152.942 192.425 144.581 192.46 136.064 192.46Z" fill="#00AEEF"/>
<path d="M169.951 173.058H89.6077C88.9349 173.056 88.2791 172.847 87.7292 172.459C87.1794 172.072 86.7622 171.524 86.5344 170.891L77.4407 145.38C77.2654 144.887 77.2108 144.361 77.2814 143.843C77.352 143.326 77.5458 142.833 77.8464 142.405C78.1471 141.978 78.5458 141.63 79.0092 141.388C79.4725 141.147 79.987 141.021 80.5093 141.02L180.937 140.88C181.415 140.88 181.886 140.984 182.319 141.186C182.752 141.387 183.135 141.681 183.442 142.047C183.749 142.413 183.972 142.841 184.095 143.303C184.218 143.764 184.238 144.246 184.155 144.716L184.232 144.749L183.944 145.422L183.941 145.429L172.948 171.08C172.697 171.667 172.28 172.168 171.747 172.52C171.214 172.871 170.59 173.058 169.951 173.058ZM180.942 142.356L80.5121 142.496C80.226 142.497 79.9442 142.566 79.6904 142.698C79.4365 142.83 79.2181 143.021 79.0533 143.255C78.8886 143.489 78.7825 143.759 78.7438 144.042C78.7051 144.326 78.735 144.614 78.831 144.884L87.9244 170.395C88.0493 170.741 88.278 171.041 88.5794 171.254C88.8807 171.466 89.2401 171.581 89.6087 171.582H169.951C170.301 171.582 170.642 171.479 170.934 171.287C171.225 171.095 171.454 170.821 171.591 170.499L182.585 144.847C182.701 144.575 182.748 144.279 182.722 143.984C182.696 143.69 182.597 143.406 182.434 143.16C182.271 142.913 182.05 142.71 181.789 142.57C181.529 142.43 181.238 142.356 180.942 142.356Z" fill="#3F3D56"/>
<path d="M130.622 178.611C134.097 178.611 136.913 175.794 136.913 172.32C136.913 168.845 134.097 166.029 130.622 166.029C127.148 166.029 124.331 168.845 124.331 172.32C124.331 175.794 127.148 178.611 130.622 178.611Z" fill="white"/>
<path d="M368.274 123.995C371.749 123.995 374.565 121.179 374.565 117.704C374.565 114.23 371.749 111.413 368.274 111.413C364.8 111.413 361.983 114.23 361.983 117.704C361.983 121.179 364.8 123.995 368.274 123.995Z" fill="white"/>
<path d="M606.218 208.957L589.413 192.365C588.595 191.551 587.624 190.907 586.556 190.468C585.489 190.03 584.345 189.807 583.191 189.812H583.132C581.969 189.815 580.819 190.049 579.747 190.5C578.675 190.951 577.704 191.61 576.888 192.439C573.131 196.242 570.993 201.353 570.926 206.699C570.859 212.045 572.866 217.208 576.527 221.105C576.704 221.297 576.888 221.481 577.073 221.666C578.095 222.682 579.223 223.585 580.438 224.36C583.761 226.506 587.635 227.642 591.59 227.629H591.716C594.431 227.62 597.117 227.072 599.619 226.018C602.121 224.964 604.389 223.425 606.292 221.489C607.941 219.815 608.86 217.557 608.846 215.207C608.832 212.858 607.887 210.61 606.218 208.957ZM605.244 220.448C602.124 223.591 598.016 225.563 593.611 226.031C589.207 226.499 584.776 225.434 581.066 223.016C580.004 222.314 579.013 221.511 578.106 220.618C574.485 217.041 572.433 212.173 572.401 207.084C572.369 201.995 574.36 197.101 577.936 193.48C578.616 192.787 579.427 192.236 580.321 191.86C581.216 191.484 582.176 191.289 583.147 191.288H583.191C584.152 191.284 585.104 191.47 585.993 191.835C586.882 192.2 587.691 192.736 588.372 193.413L605.178 210.012C606.569 211.388 607.357 213.26 607.37 215.216C607.382 217.173 606.618 219.054 605.244 220.448Z" fill="#3F3D56"/>
<path d="M551.078 154.503L534.273 137.905C532.619 136.263 530.382 135.345 528.051 135.351H528C526.835 135.356 525.683 135.591 524.61 136.043C523.538 136.495 522.565 137.155 521.748 137.986C518.642 141.141 516.628 145.208 516.001 149.591C515.374 153.973 516.167 158.442 518.265 162.341L518.272 162.349C519.137 163.944 520.212 165.415 521.468 166.725C521.608 166.888 521.771 167.05 521.933 167.212C525.792 171.043 531.013 173.188 536.45 173.176H536.583C539.298 173.165 541.985 172.615 544.486 171.56C546.988 170.505 549.256 168.965 551.16 167.028C551.977 166.2 552.623 165.22 553.061 164.142C553.499 163.065 553.721 161.912 553.713 160.749C553.706 159.586 553.469 158.436 553.017 157.364C552.565 156.292 551.906 155.32 551.078 154.503ZM550.104 165.995C548.338 167.792 546.233 169.221 543.911 170.2C541.589 171.18 539.096 171.689 536.576 171.7H536.45C532.666 171.698 528.966 170.578 525.817 168.479C522.668 166.381 520.209 163.398 518.75 159.906C517.292 156.414 516.899 152.568 517.62 148.853C518.341 145.138 520.145 141.719 522.804 139.026C524.18 137.635 526.051 136.847 528.008 136.834C529.965 136.822 531.846 137.586 533.24 138.96L550.045 155.551C551.436 156.93 552.222 158.803 552.234 160.761C552.245 162.718 551.479 164.601 550.104 165.995Z" fill="#3F3D56"/>
<path d="M607.292 214.173L588.765 195.874C587.55 194.677 585.91 194.01 584.204 194.021C582.498 194.031 580.867 194.718 579.667 195.93C578.166 197.447 576.978 199.244 576.172 201.22C575.366 203.196 574.957 205.311 574.969 207.445C574.982 209.579 575.414 211.689 576.242 213.656C577.071 215.622 578.278 217.406 579.796 218.905C581.315 220.405 583.113 221.59 585.09 222.394C587.067 223.198 589.182 223.604 591.316 223.59C593.45 223.575 595.56 223.14 597.525 222.31C599.491 221.48 601.274 220.27 602.771 218.75L607.292 214.173Z" fill="#00AEEF"/>
<path d="M552.156 159.716L533.629 141.418C532.414 140.22 530.774 139.554 529.068 139.565C527.362 139.575 525.73 140.262 524.53 141.474C523.029 142.991 521.842 144.788 521.036 146.764C520.23 148.74 519.821 150.855 519.833 152.989C519.845 155.122 520.278 157.233 521.106 159.199C521.934 161.166 523.142 162.95 524.66 164.449C526.178 165.949 527.977 167.134 529.954 167.938C531.93 168.742 534.046 169.148 536.18 169.134C538.314 169.119 540.424 168.684 542.389 167.854C544.355 167.023 546.137 165.814 547.635 164.294L552.156 159.716Z" fill="#00AEEF"/>
<path d="M586.933 225.57L586.49 226.736C584.409 225.946 582.392 225.154 580.438 224.36C545.839 210.241 529.321 193.716 518.272 162.349L518.265 162.341C517.741 160.865 517.232 159.355 516.737 157.81L517.903 157.433C518.293 158.919 518.863 160.352 519.601 161.699C520.206 163.419 520.829 165.094 521.468 166.725C531.853 193.199 547.167 208.329 576.527 221.105C578.003 221.747 579.516 222.384 581.066 223.016C582.865 224.189 584.849 225.052 586.933 225.57Z" fill="#3F3D56"/>
<path d="M533.965 171.832L532.928 172.883L571.261 210.743L572.298 209.693L533.965 171.832Z" fill="#3F3D56"/>
<path d="M209.432 140.462L209.452 116.207L195.195 117.481L200.226 132.778L181.962 160.466C180.819 160.722 179.777 161.305 178.96 162.144C178.144 162.983 177.589 164.041 177.363 165.189C177.138 166.338 177.252 167.527 177.69 168.613C178.129 169.698 178.874 170.632 179.835 171.301C180.795 171.97 181.93 172.345 183.1 172.38C184.27 172.416 185.425 172.11 186.424 171.5C187.423 170.891 188.224 170.004 188.727 168.947C189.231 167.89 189.416 166.71 189.261 165.55L209.432 140.462Z" fill="#FFB6B6"/>
</g>
<defs>
<clipPath id="clip0_153_524">
<rect width="660" height="330.854" fill="white"/>
</clipPath>
</defs>
</svg>
