<svg width="136" height="272" viewBox="0 0 136 272" fill="none" xmlns="http://www.w3.org/2000/svg">
<path d="M0 64.4156H1.48938V23.6146C1.48938 20.5135 2.10019 17.4427 3.28692 14.5777C4.47366 11.7126 6.21309 9.10937 8.4059 6.91655C10.5987 4.72374 13.202 2.98431 16.067 1.79756C18.932 0.610817 22.0028 2.37594e-06 25.1039 0H111.546C114.648 -6.33566e-06 117.718 0.610798 120.583 1.79753C123.448 2.98427 126.052 4.7237 128.245 6.91651C130.437 9.10932 132.177 11.7126 133.364 14.5776C134.55 17.4426 135.161 20.5134 135.161 23.6145V247.452C135.161 250.553 134.55 253.624 133.364 256.489C132.177 259.354 130.437 261.958 128.245 264.15C126.052 266.343 123.449 268.083 120.583 269.269C117.718 270.456 114.648 271.067 111.547 271.067H25.104C18.8411 271.067 12.8346 268.579 8.40599 264.15C3.97739 259.722 1.48942 253.715 1.4894 247.452V93.4585H0V64.4156Z" fill="#3F3D56"/>
<path d="M24.1511 6.1437H35.4347C34.9159 7.41588 34.7178 8.79615 34.858 10.1629C34.9982 11.5297 35.4724 12.841 36.2387 13.9813C37.0051 15.1217 38.0401 16.0561 39.2527 16.7022C40.4652 17.3483 41.8181 17.6863 43.192 17.6864H92.7138C94.0878 17.6863 95.4406 17.3483 96.6532 16.7022C97.8657 16.0561 98.9008 15.1217 99.6671 13.9814C100.434 12.841 100.908 11.5297 101.048 10.1629C101.188 8.79614 100.99 7.41586 100.471 6.14368H111.01C115.687 6.14367 120.173 8.00164 123.48 11.3089C126.787 14.6161 128.645 19.1016 128.645 23.7787V247.288C128.645 249.604 128.189 251.897 127.303 254.037C126.416 256.176 125.117 258.12 123.48 259.758C121.842 261.396 119.898 262.695 117.759 263.581C115.619 264.467 113.326 264.923 111.01 264.923H24.1511C21.8353 264.923 19.5421 264.467 17.4025 263.581C15.2629 262.695 13.3188 261.396 11.6813 259.758C10.0437 258.12 8.74469 256.176 7.85844 254.037C6.97219 251.897 6.51605 249.604 6.51605 247.288V23.7787C6.51605 21.4629 6.97219 19.1697 7.85844 17.0301C8.74469 14.8905 10.0437 12.9464 11.6813 11.3089C13.3188 9.67131 15.2629 8.37232 17.4025 7.48607C19.5421 6.59983 21.8353 6.14369 24.1511 6.1437Z" fill="white"/>
<path d="M86.1899 68.7599H48.9712V77.7411H86.1899V68.7599Z" fill="#00AEEF"/>
<path d="M87.9618 107.352H47.1993V116.333H87.9618V107.352Z" fill="#E5E5E5"/>
<path d="M113.07 126.645H22.0916V135.626H113.07V126.645Z" fill="#E5E5E5"/>
<path d="M113.07 145.937H22.0916V154.918H113.07V145.937Z" fill="#E5E5E5"/>
<path d="M67.6267 233.426C82.0251 233.426 93.6974 221.754 93.6974 207.356C93.6974 192.957 82.0251 181.285 67.6267 181.285C53.2282 181.285 41.5559 192.957 41.5559 207.356C41.5559 221.754 53.2282 233.426 67.6267 233.426Z" fill="#00AEEF"/>
<path d="M65.1421 217.361L57.3396 207.328L61.8771 203.799L65.5715 208.549L78.0532 195.373L82.2271 199.327L65.1421 217.361Z" fill="white"/>
</svg>
