<svg width="90" height="90" viewBox="0 0 90 90" fill="none" xmlns="http://www.w3.org/2000/svg">
<rect width="90" height="90" rx="10" fill="#00AEEF"/>
<g clip-path="url(#clip0_412_1673)">
<path d="M66.25 22.5L65.85 22.575L52.5 27.75L37.5 22.5L23.4 27.25C22.875 27.425 22.5 27.875 22.5 28.45V66.25C22.5 66.95 23.05 67.5 23.75 67.5L24.15 67.425L37.5 62.25L52.5 67.5L66.6 62.75C67.125 62.575 67.5 62.125 67.5 61.55V23.75C67.5 23.05 66.95 22.5 66.25 22.5ZM52.5 62.5L37.5 57.225V27.5L52.5 32.775V62.5Z" fill="white"/>
</g>
<defs>
<clipPath id="clip0_412_1673">
<rect width="60" height="60" fill="white" transform="translate(15 15)"/>
</clipPath>
</defs>
</svg>
