<svg width="90" height="90" viewBox="0 0 90 90" fill="none" xmlns="http://www.w3.org/2000/svg">
<rect width="90" height="90" rx="10" fill="#00AEEF"/>
<g clip-path="url(#clip0_412_1686)">
<path d="M65 53.75C61.875 53.75 58.875 53.25 56.075 52.325C55.2 52.05 54.225 52.25 53.525 52.925L48.025 58.425C40.95 54.825 35.15 49.05 31.55 41.95L37.05 36.425C37.75 35.775 37.95 34.8 37.675 33.925C36.75 31.125 36.25 28.125 36.25 25C36.25 23.625 35.125 22.5 33.75 22.5H25C23.625 22.5 22.5 23.625 22.5 25C22.5 48.475 41.525 67.5 65 67.5C66.375 67.5 67.5 66.375 67.5 65V56.25C67.5 54.875 66.375 53.75 65 53.75ZM62.5 45H67.5C67.5 32.575 57.425 22.5 45 22.5V27.5C54.675 27.5 62.5 35.325 62.5 45ZM52.5 45H57.5C57.5 38.1 51.9 32.5 45 32.5V37.5C49.15 37.5 52.5 40.85 52.5 45Z" fill="white"/>
</g>
<defs>
<clipPath id="clip0_412_1686">
<rect width="60" height="60" fill="white" transform="translate(15 15)"/>
</clipPath>
</defs>
</svg>
