<svg width="50" height="64" viewBox="0 0 50 64" fill="none" xmlns="http://www.w3.org/2000/svg">
<path opacity="0.18" d="M46.1315 49.0914C44.7823 53.7559 42.0051 58.155 37.8788 60.7205C35.3868 62.2706 32.5109 63.1066 29.6153 63.591C29.3175 63.6412 29.0215 63.6825 28.7183 63.7202C25.5215 64.1541 22.2764 64.0821 19.1021 63.5067C14.425 62.6437 9.97029 60.62 6.66742 57.1916C2.00285 52.3314 1.54357 44.5685 3.78436 38.2211C4.68139 35.6825 5.93723 33.2749 6.65486 30.686C8.32155 24.5467 6.71048 17.9105 8.12599 11.7066C8.50633 10.022 9.12888 8.3553 10.182 6.98284C11.1059 5.74852 12.3456 4.80485 13.6266 3.95446C17.4551 1.44277 21.978 -0.2903 26.5546 0.0398082C31.1313 0.369916 35.6864 3.05743 37.3944 7.31116C38.5677 10.2337 38.3398 13.5563 39.4073 16.5129C40.647 19.9521 43.496 22.5607 45.1106 25.8421C46.4418 28.5529 46.8832 31.61 47.1344 34.633C47.538 39.477 47.486 44.4232 46.1315 49.0914Z" fill="#68E1FD"/>
<path d="M49.8111 9.30979V37.2039C49.8111 38.0789 49.4635 38.9181 48.8448 39.5369C48.2261 40.1556 47.3869 40.5032 46.5119 40.5032H4.29929C3.42426 40.5032 2.58507 40.1556 1.96634 39.5369C1.3476 38.9181 1 38.0789 1 37.2039V9.30979C1.00051 9.18266 1.00829 9.05567 1.02332 8.92944C1.11582 8.12559 1.50082 7.38386 2.10495 6.84556C2.70908 6.30727 3.49013 6.01004 4.29929 6.0105H46.5119C47.321 6.01004 48.1021 6.30727 48.7062 6.84556C49.3103 7.38386 49.6953 8.12559 49.7878 8.92944C49.8028 9.05567 49.8106 9.18266 49.8111 9.30979Z" fill="white" stroke="#68E1FD" stroke-width="0.329464" stroke-miterlimit="10"/>
<path opacity="0.18" d="M28.72 15.3293H4.94144C4.25579 15.3293 3.69995 15.8853 3.69995 16.571C3.69995 17.2568 4.25579 17.8127 4.94144 17.8127H28.72C29.4056 17.8127 29.9615 17.2568 29.9615 16.571C29.9615 15.8853 29.4056 15.3293 28.72 15.3293Z" fill="#68E1FD"/>
<path opacity="0.18" d="M28.72 18.8135H4.94144C4.25579 18.8135 3.69995 19.3693 3.69995 20.055V34.6013C3.69995 35.2869 4.25579 35.8427 4.94144 35.8427H28.72C29.4056 35.8427 29.9615 35.2869 29.9615 34.6013V20.055C29.9615 19.3693 29.4056 18.8135 28.72 18.8135Z" fill="#68E1FD"/>
<path opacity="0.18" d="M38.6288 28.916C41.4477 28.916 43.7329 26.6308 43.7329 23.8119C43.7329 20.993 41.4477 18.7078 38.6288 18.7078C35.8098 18.7078 33.5247 20.993 33.5247 23.8119C33.5247 26.6308 35.8098 28.916 38.6288 28.916Z" fill="#68E1FD"/>
<path d="M26.8544 18.0939C27.4195 19.016 26.7001 31.9315 27.1737 32.5756C28.2842 34.0862 30.665 38.4135 30.5717 40.2901C28.7937 40.3546 26.1439 40.3295 24.3875 40.055C24.0646 40.0048 23.7219 39.9384 23.4905 39.7124C23.2937 39.4877 23.1589 39.2157 23.0994 38.923L20.9842 31.657C20.1302 28.7237 19.278 25.5769 20.2002 22.6634C20.6648 21.194 21.5529 19.9005 22.4284 18.6321C22.9182 17.9145 22.1252 16.594 23.0366 16.4415C23.991 16.2801 26.3789 17.3206 26.8544 18.0939Z" fill="url(#paint0_linear_263_1253)"/>
<path d="M28.7219 55.1668V63.7191C25.5251 64.153 22.28 64.081 19.1057 63.5056C19.0375 62.1546 18.8563 59.2465 18.5262 57.8686C18.0902 56.0387 16.5258 55.6027 15.13 53.9522C13.7342 52.3016 13.214 46.0206 12.8659 44.9819C12.5179 43.9431 10.4296 42.1113 9.33878 40.8896C9.02854 40.5726 8.82752 40.1648 8.76492 39.7257C8.70233 39.2866 8.78143 38.8389 8.99073 38.4479C8.99073 38.4479 14.1271 40.8896 14.1271 40.3657C14.1271 39.8419 12.9538 38.7134 12.9538 38.7134C12.9538 38.7134 9.90391 37.2781 8.81491 36.0546C7.72591 34.831 8.4238 33.3635 8.4238 33.3635L14.956 35.7424L15.5642 35.2221L13.0399 34.0022C13.0399 34.0022 10.5103 32.6943 9.0302 31.5622C7.55009 30.4302 8.16366 27.7337 8.16366 27.7337L17.6561 32.0861L16.524 29.6498C16.524 29.6498 10.8637 27.9059 9.29572 26.4204C7.72771 24.935 8.16366 23.2844 8.16366 23.2844C8.16366 23.2844 19.5739 25.9845 21.054 26.8582C22.5341 27.7319 27.4104 38.2685 27.5826 38.7869C27.7549 39.3054 28.7219 55.1668 28.7219 55.1668Z" fill="#F7AF87"/>
<path d="M19.9435 47.4268L18.4203 52.6977C18.4203 52.6977 14.6312 53.0888 13.3682 47.4716C12.1052 41.8544 19.9435 47.4268 19.9435 47.4268Z" fill="url(#paint1_linear_263_1253)"/>
<path d="M22.5484 16.3199H12.403C10.8801 16.3199 9.64551 17.5545 9.64551 19.0774V44.7451C9.64551 46.268 10.8801 47.5026 12.403 47.5026H22.5484C24.0713 47.5026 25.3059 46.268 25.3059 44.7451V19.0774C25.3059 17.5545 24.0713 16.3199 22.5484 16.3199Z" fill="#68E1FD"/>
<path d="M22.5484 16.3199H12.403C10.8801 16.3199 9.64551 17.5545 9.64551 19.0774V44.7451C9.64551 46.268 10.8801 47.5026 12.403 47.5026H22.5484C24.0713 47.5026 25.3059 46.268 25.3059 44.7451V19.0774C25.3059 17.5545 24.0713 16.3199 22.5484 16.3199Z" fill="url(#paint2_linear_263_1253)"/>
<path d="M22.5771 16.2874H12.3743C10.8672 16.2874 9.64551 17.5091 9.64551 19.0161V44.0774C9.64551 45.5845 10.8672 46.8062 12.3743 46.8062H22.5771C24.0842 46.8062 25.3059 45.5845 25.3059 44.0774V19.0161C25.3059 17.5091 24.0842 16.2874 22.5771 16.2874Z" fill="#68E1FD"/>
<path d="M22.1071 16.9924H12.9269C11.5724 16.9924 10.4744 18.0904 10.4744 19.4449V41.9389C10.4744 43.2934 11.5724 44.3914 12.9269 44.3914H22.1071C23.4616 44.3914 24.5596 43.2934 24.5596 41.9389V19.4449C24.5596 18.0904 23.4616 16.9924 22.1071 16.9924Z" fill="white"/>
<path opacity="0.18" d="M17.9092 29.2224C16.6946 29.2221 15.5072 29.5819 14.4971 30.2564C13.487 30.9309 12.6996 31.8897 12.2345 33.0117C11.7694 34.1337 11.6474 35.3685 11.884 36.5598C12.1206 37.7511 12.7052 38.8455 13.5638 39.7046C14.4224 40.5637 15.5164 41.1489 16.7076 41.3862C17.8988 41.6235 19.1336 41.5023 20.2559 41.0378C21.3782 40.5733 22.3375 39.7865 23.0126 38.7768C23.6877 37.7671 24.0482 36.5799 24.0485 35.3653C24.0481 33.7369 23.4012 32.1752 22.2501 31.0234C21.0989 29.8716 19.5377 29.2238 17.9092 29.2224ZM17.9092 40.4604C16.9206 40.4608 15.9541 40.168 15.1319 39.619C14.3097 39.07 13.6687 38.2895 13.2902 37.3762C12.9116 36.4629 12.8123 35.4578 13.005 34.4882C13.1977 33.5185 13.6736 32.6277 14.3725 31.9285C15.0715 31.2293 15.9621 30.7531 16.9317 30.5601C17.9013 30.3671 18.9064 30.466 19.8198 30.8442C20.7332 31.2225 21.5139 31.8631 22.0632 32.6851C22.6125 33.5071 22.9057 34.4735 22.9057 35.4622C22.9043 36.787 22.3775 38.0573 21.4408 38.9943C20.5042 39.9313 19.2341 40.4585 17.9092 40.4604Z" fill="#68E1FD"/>
<path d="M14.9868 34.3305C14.9567 34.3304 14.927 34.3249 14.8989 34.3144C14.8419 34.2909 14.7964 34.2459 14.7722 34.1892C14.7481 34.1325 14.7471 34.0685 14.7697 34.0111C14.7697 33.9896 15.6811 31.8149 17.9075 31.883C17.9381 31.884 17.9683 31.8909 17.9962 31.9035C18.0242 31.9161 18.0494 31.9341 18.0704 31.9564C18.0913 31.9787 18.1077 32.005 18.1186 32.0337C18.1294 32.0623 18.1345 32.0928 18.1336 32.1235C18.1331 32.1541 18.1265 32.1843 18.1142 32.2124C18.1019 32.2404 18.0841 32.2657 18.0619 32.2868C18.0396 32.3079 18.0134 32.3243 17.9848 32.3351C17.9561 32.3458 17.9256 32.3508 17.8949 32.3496C15.9825 32.2957 15.2326 34.108 15.2038 34.1852C15.1867 34.2286 15.1568 34.2658 15.118 34.2917C15.0792 34.3177 15.0334 34.3312 14.9868 34.3305Z" fill="#68E1FD"/>
<path d="M20.9896 35.2205C20.9298 35.2206 20.8723 35.1978 20.8289 35.1567C20.7855 35.1156 20.7596 35.0595 20.7563 34.9998C20.746 34.4887 20.5881 33.9914 20.3016 33.5679C20.0151 33.1445 19.6123 32.813 19.1417 32.6133C19.0838 32.5926 19.0365 32.5499 19.0099 32.4945C18.9834 32.439 18.9798 32.3753 18.9999 32.3173C19.0096 32.2882 19.025 32.2613 19.0452 32.2382C19.0655 32.2152 19.0901 32.1964 19.1177 32.183C19.1453 32.1697 19.1753 32.1619 19.2059 32.1603C19.2365 32.1587 19.2671 32.1633 19.296 32.1737C19.8562 32.4004 20.3375 32.7868 20.6801 33.2847C21.0226 33.7827 21.2114 34.3704 21.2228 34.9747C21.2257 35.0365 21.2042 35.0969 21.1629 35.1429C21.1216 35.1889 21.0638 35.2168 21.0021 35.2205H20.9896Z" fill="#68E1FD"/>
<path d="M20.5177 37.0555C20.4659 37.0554 20.4155 37.0384 20.3742 37.0071C20.3258 36.9689 20.2945 36.9131 20.2871 36.8519C20.2797 36.7907 20.2968 36.7291 20.3347 36.6805C20.5079 36.4231 20.6185 36.1288 20.6576 35.821C20.6595 35.7894 20.6677 35.7585 20.6819 35.7301C20.6961 35.7018 20.7159 35.6766 20.7402 35.6562C20.7644 35.6358 20.7925 35.6205 20.8228 35.6113C20.8532 35.6022 20.885 35.5992 20.9165 35.6028C20.948 35.6063 20.9784 35.6162 21.006 35.6319C21.0335 35.6476 21.0575 35.6688 21.0766 35.694C21.0957 35.7193 21.1094 35.7483 21.117 35.779C21.1245 35.8098 21.1257 35.8418 21.1205 35.8731C21.0695 36.2661 20.9243 36.641 20.6971 36.9658C20.6758 36.9932 20.6486 37.0154 20.6175 37.0309C20.5865 37.0465 20.5524 37.0549 20.5177 37.0555Z" fill="#68E1FD"/>
<path d="M15.7654 34.6157C15.7325 34.6156 15.7 34.6083 15.6703 34.5941C15.6144 34.5687 15.5707 34.5222 15.5489 34.4647C15.5271 34.4073 15.5288 34.3435 15.5537 34.2873C15.7359 33.8778 16.0171 33.5201 16.3719 33.2463C16.7267 32.9725 17.1441 32.7913 17.5864 32.7191C18.2807 32.606 18.9427 32.7836 19.3105 33.182C19.3329 33.2042 19.3506 33.2307 19.3624 33.2599C19.3743 33.2891 19.3802 33.3204 19.3796 33.3519C19.379 33.3835 19.3721 33.4146 19.3592 33.4433C19.3463 33.4721 19.3276 33.498 19.3045 33.5193C19.2813 33.5407 19.254 33.5571 19.2243 33.5677C19.1945 33.5782 19.163 33.5826 19.1315 33.5806C19.1001 33.5786 19.0693 33.5702 19.0412 33.556C19.013 33.5417 18.9881 33.5219 18.9678 33.4978C18.7095 33.2179 18.1964 33.0923 17.6599 33.1802C17.294 33.2396 16.9486 33.3894 16.6551 33.6159C16.3616 33.8424 16.1292 34.1386 15.9789 34.4775C15.9603 34.5186 15.9303 34.5535 15.8924 34.578C15.8546 34.6025 15.8105 34.6156 15.7654 34.6157Z" fill="#68E1FD"/>
<path d="M18.5444 38.6366C18.498 38.6372 18.4525 38.6238 18.4138 38.5982C18.3751 38.5726 18.345 38.5359 18.3274 38.493C18.3097 38.45 18.3055 38.4028 18.3151 38.3573C18.3246 38.3119 18.3477 38.2704 18.3811 38.2383C20.7834 35.8967 19.4576 34.1418 19.4576 34.1238C19.4322 34.0757 19.4244 34.0203 19.4356 33.9671C19.4468 33.9139 19.4762 33.8662 19.5187 33.8324C19.5613 33.7986 19.6143 33.7807 19.6686 33.7818C19.723 33.7829 19.7753 33.803 19.8164 33.8385C19.8325 33.8583 21.4005 35.9415 18.7023 38.572C18.6597 38.6127 18.6033 38.6358 18.5444 38.6366Z" fill="#68E1FD"/>
<path d="M14.9723 36.4725C14.9274 36.4728 14.8833 36.46 14.8455 36.4358C14.8076 36.4116 14.7775 36.377 14.7588 36.3361C14.5471 35.8624 14.6817 34.9886 14.6978 34.8917C14.7084 34.8309 14.7423 34.7767 14.7922 34.7405C14.8421 34.7043 14.9041 34.689 14.9652 34.6979C14.9955 34.7029 15.0245 34.7138 15.0505 34.7301C15.0766 34.7463 15.0992 34.7676 15.117 34.7926C15.1349 34.8176 15.1476 34.8459 15.1545 34.8758C15.1614 34.9058 15.1623 34.9368 15.1571 34.967C15.1069 35.2828 15.0674 35.884 15.184 36.1441C15.2003 36.1795 15.2075 36.2185 15.2047 36.2573C15.202 36.2962 15.1895 36.3337 15.1684 36.3665C15.1472 36.3992 15.1182 36.4261 15.0839 36.4446C15.0497 36.4632 15.0113 36.4728 14.9723 36.4725Z" fill="#68E1FD"/>
<path d="M15.3795 37.5653C15.3305 37.566 15.2825 37.551 15.2425 37.5226C15.2025 37.4942 15.1726 37.4539 15.157 37.4074C15.1414 37.3609 15.141 37.3106 15.1559 37.2638C15.1707 37.2171 15.2 37.1763 15.2396 37.1473C15.6145 36.8655 15.5123 35.8248 15.358 35.2345C15.3427 35.1748 15.3516 35.1114 15.3829 35.0583C15.4142 35.0052 15.4652 34.9666 15.5248 34.951C15.5544 34.9429 15.5853 34.9408 15.6157 34.9449C15.646 34.949 15.6753 34.9591 15.7017 34.9746C15.7281 34.9902 15.7512 35.0109 15.7695 35.0355C15.7878 35.06 15.801 35.0881 15.8083 35.1178C15.8585 35.2973 16.264 36.9606 15.5194 37.5187C15.4793 37.5494 15.43 37.5659 15.3795 37.5653Z" fill="#68E1FD"/>
<path d="M15.9627 38.1055C15.9122 38.1054 15.863 38.0889 15.8227 38.0585C15.7824 38.028 15.753 37.9853 15.7391 37.9367C15.7251 37.8881 15.7273 37.8364 15.7453 37.7891C15.7633 37.7419 15.7962 37.7018 15.8389 37.6749C15.8748 37.6516 16.6642 37.1366 16.3341 35.8159C16.1206 34.9582 16.3341 34.4217 16.5691 34.1239C16.7374 33.9164 16.9507 33.75 17.1929 33.6372C17.435 33.5243 17.6996 33.468 17.9667 33.4725C17.9972 33.4708 18.0279 33.4753 18.0566 33.4858C18.0854 33.4963 18.1117 33.5125 18.1341 33.5335C18.1564 33.5545 18.1742 33.5798 18.1864 33.6078C18.1987 33.6359 18.2051 33.6662 18.2053 33.6968C18.2065 33.7274 18.2016 33.7578 18.191 33.7865C18.1803 33.8152 18.1641 33.8414 18.1433 33.8638C18.1224 33.8861 18.0973 33.9041 18.0695 33.9168C18.0416 33.9294 18.0116 33.9363 17.981 33.9373C17.7836 33.9321 17.5875 33.9716 17.4073 34.0527C17.2272 34.1337 17.0676 34.2544 16.9405 34.4056C16.7054 34.716 16.6516 35.1664 16.7862 35.7029C17.2006 37.3645 16.1296 38.0356 16.0847 38.0714C16.0479 38.0937 16.0057 38.1055 15.9627 38.1055Z" fill="#68E1FD"/>
<path d="M18.381 36.9391C18.338 36.9384 18.2961 36.9258 18.2599 36.9026C18.2237 36.8795 18.1946 36.8467 18.176 36.8079C18.1574 36.7692 18.1499 36.726 18.1544 36.6833C18.1589 36.6405 18.1753 36.5999 18.2016 36.5659C18.5479 36.1137 18.8242 35.4336 18.6878 35.0766C18.661 35.0095 18.6158 34.9513 18.5574 34.9088C18.499 34.8663 18.4298 34.8411 18.3577 34.8361C18.1012 34.7877 17.9182 34.8164 17.8087 34.924C17.6168 35.1035 17.6437 35.5287 17.6688 35.6741C17.6769 35.7051 17.6785 35.7375 17.6736 35.7692C17.6686 35.8009 17.6572 35.8312 17.64 35.8583C17.6228 35.8853 17.6002 35.9086 17.5736 35.9265C17.547 35.9444 17.517 35.9567 17.4854 35.9625C17.4539 35.9683 17.4215 35.9676 17.3902 35.9603C17.359 35.953 17.3296 35.9394 17.3039 35.9202C17.2782 35.9011 17.2566 35.8768 17.2407 35.849C17.2248 35.8211 17.2148 35.7903 17.2113 35.7584C17.1969 35.6812 17.0821 34.9886 17.4804 34.5939C17.7047 34.3714 18.0294 34.2996 18.4456 34.3786C18.5966 34.399 18.7393 34.4597 18.8587 34.5545C18.978 34.6492 19.0696 34.7744 19.1238 34.9169C19.3355 35.4749 18.9856 36.3129 18.5712 36.853C18.5487 36.8814 18.5196 36.9041 18.4866 36.9191C18.4535 36.9341 18.4173 36.9409 18.381 36.9391Z" fill="#68E1FD"/>
<path d="M16.7161 38.4407C16.6699 38.4404 16.6248 38.4264 16.5865 38.4004C16.5483 38.3744 16.5186 38.3377 16.5013 38.2948C16.484 38.2519 16.4799 38.2048 16.4893 38.1596C16.4988 38.1143 16.5216 38.0729 16.5546 38.0406C17.2005 37.4126 17.1826 36.4741 17.1826 36.4652C17.1807 36.4033 17.2034 36.3432 17.2458 36.2981C17.2882 36.253 17.3468 36.2266 17.4086 36.2247C17.4705 36.2228 17.5306 36.2456 17.5756 36.288C17.6207 36.3304 17.6471 36.3889 17.649 36.4508C17.649 36.4975 17.6759 37.601 16.8794 38.3744C16.8358 38.4172 16.7772 38.441 16.7161 38.4407Z" fill="#68E1FD"/>
<path d="M17.579 38.6917C17.5448 38.6917 17.511 38.6837 17.4804 38.6684C17.4528 38.6555 17.428 38.6373 17.4074 38.6148C17.3869 38.5922 17.371 38.5659 17.3606 38.5372C17.3503 38.5085 17.3457 38.4781 17.3472 38.4477C17.3486 38.4172 17.3561 38.3873 17.3691 38.3598L17.8392 37.3639C17.8666 37.3098 17.9141 37.2685 17.9716 37.2488C18.029 37.2291 18.0919 37.2326 18.1468 37.2586C18.2017 37.2845 18.2443 37.3308 18.2656 37.3877C18.2869 37.4445 18.2851 37.5075 18.2608 37.5631L17.7907 38.559C17.7717 38.5989 17.7416 38.6326 17.7042 38.6561C17.6667 38.6796 17.6233 38.692 17.579 38.6917Z" fill="#68E1FD"/>
<path d="M26.3233 42.8304C25.4998 41.3001 24.6548 39.7625 23.5299 38.4367C22.4051 37.1109 20.968 35.9932 19.2942 35.5303C18.8923 35.4173 18.3971 35.3725 18.1244 35.6954C17.945 35.925 17.945 36.2551 17.9863 36.5494C18.1228 37.5348 18.4952 38.4727 19.0717 39.2835C19.5112 39.9007 20.062 40.4335 20.48 41.065C20.898 41.6965 21.1851 42.4752 21.0021 43.2089C19.9651 47.3532 18.8654 51.9729 21.6139 55.2435C21.8787 55.5909 22.2129 55.8793 22.5952 56.0903C22.9616 56.245 23.3518 56.3355 23.7488 56.3576C24.4294 56.427 25.1105 56.4641 25.7923 56.4689C26.2378 56.4986 26.6845 56.4319 27.1019 56.2733C28.2681 55.7477 28.4313 54.1886 28.4259 52.9094C28.4116 49.3877 27.99 45.9359 26.3233 42.8304Z" fill="#F7AF87"/>
<path d="M49.7879 8.92991H1.02344C1.11594 8.12593 1.50093 7.38408 2.10506 6.8457C2.7092 6.30732 3.49024 6.01004 4.2994 6.0105H46.512C47.3211 6.01004 48.1022 6.30732 48.7063 6.8457C49.3104 7.38408 49.6954 8.12593 49.7879 8.92991Z" fill="#68E1FD"/>
<path d="M37.4969 25.7994L33.7939 21.7C33.6666 21.5653 33.5907 21.3901 33.5796 21.2051C33.5684 21.0201 33.6227 20.8371 33.7329 20.6881C33.8018 20.6012 33.8887 20.5304 33.9876 20.4805C34.0866 20.4306 34.1952 20.4028 34.306 20.399C34.4167 20.3953 34.527 20.4156 34.6291 20.4587C34.7312 20.5018 34.8227 20.5666 34.8973 20.6486L37.8718 23.9425C37.9194 23.9947 37.9772 24.0366 38.0416 24.0656C38.106 24.0946 38.1757 24.11 38.2463 24.111C38.3169 24.112 38.387 24.0986 38.4522 24.0714C38.5174 24.0443 38.5763 24.0041 38.6253 23.9533L45.7604 16.5815C45.8374 16.5018 45.9309 16.4399 46.0343 16.4C46.1376 16.36 46.2485 16.3431 46.3591 16.3502C46.4697 16.3574 46.5774 16.3885 46.6747 16.4415C46.7721 16.4944 46.8568 16.5679 46.9229 16.6568C47.0286 16.8096 47.0772 16.9947 47.0602 17.1797C47.0431 17.3647 46.9615 17.5378 46.8296 17.6687L38.9357 25.8227C38.8417 25.9193 38.729 25.9956 38.6044 26.0471C38.4798 26.0985 38.346 26.1239 38.2113 26.1217C38.0765 26.1195 37.9436 26.0898 37.8208 26.0344C37.6979 25.9789 37.5877 25.899 37.4969 25.7994Z" fill="url(#paint3_linear_263_1253)"/>
<path d="M37.4969 25.3742L33.7939 21.2747C33.6666 21.1401 33.5907 20.9649 33.5796 20.7799C33.5684 20.5949 33.6227 20.4119 33.7329 20.2629C33.8017 20.1759 33.8887 20.1049 33.9877 20.055C34.0868 20.0051 34.1955 19.9773 34.3064 19.9737C34.4172 19.9702 34.5275 19.9908 34.6296 20.0342C34.7316 20.0777 34.823 20.1428 34.8973 20.2252L37.8718 23.5102C37.9193 23.5625 37.977 23.6045 38.0413 23.6336C38.1056 23.6627 38.1753 23.6784 38.2459 23.6796C38.3165 23.6807 38.3866 23.6674 38.4519 23.6405C38.5171 23.6135 38.5762 23.5734 38.6253 23.5227L45.7604 16.1545C45.8374 16.0748 45.9309 16.0129 46.0343 15.973C46.1376 15.933 46.2485 15.9161 46.3591 15.9232C46.4697 15.9304 46.5774 15.9615 46.6747 16.0145C46.7721 16.0674 46.8568 16.1409 46.9229 16.2298C47.0286 16.3826 47.0772 16.5677 47.0602 16.7527C47.0431 16.9377 46.9615 17.1108 46.8296 17.2417L38.9357 25.3957C38.842 25.4926 38.7294 25.5693 38.6048 25.6211C38.4803 25.6728 38.3465 25.6984 38.2116 25.6964C38.0768 25.6944 37.9438 25.6647 37.8209 25.6093C37.698 25.5539 37.5877 25.4739 37.4969 25.3742Z" fill="#68E1FD"/>
<path opacity="0.18" d="M15.0439 24.0934C15.5185 24.0934 15.9033 23.7086 15.9033 23.2339C15.9033 22.7592 15.5185 22.3744 15.0439 22.3744C14.5693 22.3744 14.1846 22.7592 14.1846 23.2339C14.1846 23.7086 14.5693 24.0934 15.0439 24.0934Z" fill="#68E1FD"/>
<path opacity="0.18" d="M17.3098 24.0934C17.7844 24.0934 18.1692 23.7086 18.1692 23.2339C18.1692 22.7592 17.7844 22.3744 17.3098 22.3744C16.8352 22.3744 16.4504 22.7592 16.4504 23.2339C16.4504 23.7086 16.8352 24.0934 17.3098 24.0934Z" fill="#68E1FD"/>
<path opacity="0.18" d="M19.574 24.0934C20.0486 24.0934 20.4333 23.7086 20.4333 23.2339C20.4333 22.7592 20.0486 22.3744 19.574 22.3744C19.0993 22.3744 18.7146 22.7592 18.7146 23.2339C18.7146 23.7086 19.0993 24.0934 19.574 24.0934Z" fill="#68E1FD"/>
<path opacity="0.18" d="M28.72 11.1494H4.94144C4.25579 11.1494 3.69995 11.7053 3.69995 12.3911C3.69995 13.0769 4.25579 13.6328 4.94144 13.6328H28.72C29.4056 13.6328 29.9615 13.0769 29.9615 12.3911C29.9615 11.7053 29.4056 11.1494 28.72 11.1494Z" fill="#68E1FD"/>
<path d="M25.2576 40.8071C25.2576 40.8071 25.6164 41.0368 25.7151 40.6439C25.8137 40.251 26.2694 36.0385 26.2694 36.0385L25.2576 33.9807V40.8071Z" fill="url(#paint4_linear_263_1253)"/>
<path d="M19.3946 45.249H15.5087C15.2827 45.249 15.0996 45.4318 15.0996 45.6572C15.0996 45.8827 15.2827 46.0655 15.5087 46.0655H19.3946C19.6205 46.0655 19.8036 45.8827 19.8036 45.6572C19.8036 45.4318 19.6205 45.249 19.3946 45.249Z" fill="url(#paint5_linear_263_1253)"/>
<defs>
<linearGradient id="paint0_linear_263_1253" x1="33.679" y1="27.5845" x2="4.9542" y2="30.8335" gradientUnits="userSpaceOnUse">
<stop stop-opacity="0"/>
<stop offset="0.99"/>
</linearGradient>
<linearGradient id="paint1_linear_263_1253" x1="12.2667" y1="52.0877" x2="26.7681" y2="40.0675" gradientUnits="userSpaceOnUse">
<stop stop-opacity="0"/>
<stop offset="0.99"/>
</linearGradient>
<linearGradient id="paint2_linear_263_1253" x1="9.64551" y1="31.9122" x2="25.3041" y2="31.9122" gradientUnits="userSpaceOnUse">
<stop stop-opacity="0"/>
<stop offset="0.99"/>
</linearGradient>
<linearGradient id="paint3_linear_263_1253" x1="39.8435" y1="9.71559" x2="41.7596" y2="47.5184" gradientUnits="userSpaceOnUse">
<stop stop-opacity="0"/>
<stop offset="0.99"/>
</linearGradient>
<linearGradient id="paint4_linear_263_1253" x1="25.2791" y1="28.8515" x2="26.691" y2="56.7097" gradientUnits="userSpaceOnUse">
<stop stop-opacity="0"/>
<stop offset="0.99"/>
</linearGradient>
<linearGradient id="paint5_linear_263_1253" x1="17.4498" y1="42.8105" x2="17.4498" y2="51.5221" gradientUnits="userSpaceOnUse">
<stop stop-opacity="0"/>
<stop offset="0.99"/>
</linearGradient>
</defs>
</svg>
