<svg width="70" height="54" viewBox="0 0 70 54" fill="none" xmlns="http://www.w3.org/2000/svg">
<path opacity="0.24" d="M41.3109 4.16225C39.6508 3.21535 37.6745 2.68432 35.8117 3.10192C34.5675 3.38548 33.4487 4.05914 32.3592 4.72592L22.5636 10.7287C20.3175 12.1035 17.9821 13.5694 16.6399 15.8361C15.8872 17.1061 15.4971 18.5531 14.8767 19.8918C13.5792 22.7016 11.2678 25.0594 10.5667 28.0737C9.59916 32.2101 11.9776 36.4944 15.2067 39.2663C18.4358 42.0383 22.4347 43.6881 26.1227 45.7967C28.4324 47.1182 30.6389 48.6305 33.0449 49.7699C35.2671 50.8343 37.6461 51.5341 40.0908 51.8424C41.8265 52.0504 43.6343 52.0332 45.2618 51.3956C49.2642 49.8266 50.9965 45.1488 54.2599 42.3494C55.9509 40.8972 58.0252 39.9812 59.9138 38.7955C61.8025 37.6097 63.6018 36.0132 64.2015 33.865C64.9697 31.1154 63.5536 28.1819 61.6134 26.0853C59.6732 23.9887 57.214 22.4335 55.2103 20.3971C52.7562 17.9052 51.7389 14.726 49.7626 11.942C47.6969 9.05658 44.3767 5.91169 41.3109 4.16225Z" fill="#68E1FD"/>
<path opacity="0.24" d="M53.6432 37.3087C51.8233 37.6971 50.4519 39.1527 49.2043 40.5327L47.2847 42.6636C46.7691 43.2273 46.2536 43.8271 46.0817 44.5694C45.7673 46.0371 46.9736 47.3517 48.0769 48.3691L52.4402 52.3818C52.9558 52.8578 53.4868 53.3425 54.1399 53.6002C54.8273 53.8701 55.5886 53.8632 56.3275 53.8511C57.9171 53.8237 59.6288 53.7532 60.8902 52.7874C61.8525 52.0501 62.4076 50.897 63.3098 50.0842C66.0028 47.6645 67.3673 45.5181 63.8666 43.1293C60.8317 41.062 57.8398 36.4099 53.6432 37.3087Z" fill="#68E1FD"/>
<path opacity="0.24" d="M15.92 15.197C16.6074 15.6713 17.3069 16.1301 17.862 16.7436C18.3281 17.2854 18.6805 17.9155 18.8981 18.5963C19.1157 19.2772 19.194 19.9948 19.1285 20.7065C18.9857 22.1369 18.4006 23.4873 17.4547 24.5697C16.8996 25.2245 16.2397 25.7899 15.7362 26.4807C15.3925 26.9482 15.1158 27.4672 14.7669 27.9346C14.2843 28.56 13.6811 29.0823 12.993 29.4704C12.3049 29.8586 11.546 30.1048 10.7611 30.1944C9.1794 30.3642 7.58893 29.9658 6.27402 29.0705C4.32007 27.7542 3.1532 25.5854 1.67699 23.7431C1.17862 23.1228 0.630417 22.523 0.321084 21.7909C-0.132603 20.7151 -0.0226185 19.4933 0.149233 18.3401C0.286714 17.4774 0.472314 16.5615 1.05661 15.9016C1.77495 15.0939 2.92463 14.855 3.84404 14.2862C5.6966 13.1468 7.07141 10.3748 9.59075 10.6996C10.7112 10.844 11.6255 11.6946 12.44 12.4044C13.5498 13.3961 14.7115 14.3283 15.92 15.197Z" fill="#68E1FD"/>
<path opacity="0.24" d="M49.4654 3.98667C48.1009 5.21713 46.769 6.63662 46.3514 8.4256C45.8685 10.4878 46.6951 12.6325 47.8448 14.4026C48.9945 16.1727 50.4793 17.7159 51.5465 19.5392C51.8816 20.1081 52.1909 20.7233 52.7237 21.1134C53.3338 21.5602 54.1311 21.6289 54.8856 21.6942C57.905 21.9314 61.287 22.0551 63.5658 20.0599C65.4562 18.4033 66.0439 15.7293 67.4634 13.655C67.9703 12.9161 68.5993 12.2218 68.821 11.3522C69.1819 9.93445 68.3587 8.49949 67.4771 7.3309C65.5558 4.77547 62.3869 1.08926 59.1973 0.211099C55.6864 -0.754706 51.9125 1.77838 49.4654 3.98667Z" fill="#68E1FD"/>
<path d="M53.6843 12.8547L36.207 23.8532L35.7327 23.0936L53.21 12.0968L53.6843 12.8547Z" fill="#68E1FD"/>
<path d="M13.2837 20.1974L13.6475 19.3791L28.0805 25.7961L27.7168 26.6144L13.2837 20.1974Z" fill="#68E1FD"/>
<path d="M11.4581 10.1484L4.96494 10.7587C3.9907 10.8503 3.27517 11.7143 3.36674 12.6886L4.91072 29.1139C5.0023 30.0881 5.86631 30.8037 6.84055 30.7121L13.3337 30.1017C14.3079 30.0102 15.0235 29.1462 14.9319 28.1719L13.3879 11.7466C13.2963 10.7724 12.4323 10.0568 11.4581 10.1484Z" fill="#68E1FD"/>
<path d="M11.4581 10.1484L4.96494 10.7587C3.9907 10.8503 3.27517 11.7143 3.36674 12.6886L4.91072 29.1139C5.0023 30.0881 5.86631 30.8037 6.84055 30.7121L13.3337 30.1017C14.3079 30.0102 15.0235 29.1462 14.9319 28.1719L13.3879 11.7466C13.2963 10.7724 12.4323 10.0568 11.4581 10.1484Z" fill="url(#paint0_linear_263_1289)"/>
<path d="M11.4749 10.125L4.94417 10.7389C3.98032 10.8295 3.27242 11.6843 3.36302 12.6481L4.87065 28.6868C4.96125 29.6506 5.81604 30.3585 6.77989 30.2679L13.3107 29.654C14.2745 29.5634 14.9824 28.7087 14.8918 27.7448L13.3842 11.7062C13.2936 10.7423 12.4388 10.0344 11.4749 10.125Z" fill="#68E1FD"/>
<path d="M11.2147 10.6034L5.33923 11.1557C4.47271 11.2372 3.83629 12.0057 3.91775 12.8722L5.27081 27.2666C5.35227 28.1331 6.12074 28.7695 6.98726 28.6881L12.8627 28.1358C13.7292 28.0543 14.3657 27.2858 14.2842 26.4193L12.9311 12.0249C12.8497 11.1584 12.0812 10.522 11.2147 10.6034Z" fill="white"/>
<path opacity="0.18" d="M8.69885 15.3598C7.91986 15.4314 7.17962 15.7324 6.57184 16.2249C5.96406 16.7174 5.51608 17.3792 5.28463 18.1264C5.05318 18.8736 5.04867 19.6728 5.27166 20.4226C5.49465 21.1724 5.93512 21.8392 6.5373 22.3385C7.13947 22.8378 7.87627 23.1472 8.65441 23.2275C9.43254 23.3079 10.217 23.1555 10.9085 22.7897C11.6 22.4239 12.1673 21.8612 12.5388 21.1727C12.9103 20.4843 13.0691 19.7011 12.9951 18.9223C12.8963 17.8808 12.3885 16.921 11.5832 16.2532C10.7779 15.5854 9.74065 15.2642 8.69885 15.3598ZM9.37595 22.5518C8.74348 22.6116 8.10749 22.4824 7.54842 22.1807C6.98936 21.8789 6.53233 21.4182 6.23513 20.8567C5.93793 20.2952 5.81392 19.6582 5.87878 19.0262C5.94363 18.3943 6.19444 17.7957 6.59949 17.3063C7.00453 16.8169 7.54562 16.4586 8.15431 16.2767C8.76301 16.0948 9.41197 16.0975 10.0191 16.2845C10.6263 16.4714 11.1644 16.8342 11.5653 17.327C11.9663 17.8198 12.2121 18.4204 12.2716 19.0529C12.3506 19.9007 12.0901 20.7451 11.5472 21.4011C11.0044 22.057 10.2235 22.4708 9.37595 22.5518Z" fill="#68E1FD"/>
<path d="M9.22119 17.483L9.55802 21.0787L10.4413 20.1522L9.79346 20.2124L9.53568 17.4744L9.22119 17.483Z" fill="#68E1FD"/>
<path d="M9.25213 21.1071L8.91358 17.5114L8.03198 18.4378L8.67814 18.3776L8.93592 21.1156L9.25213 21.1071Z" fill="#68E1FD"/>
<path d="M35.3185 15.96C33.0781 15.9586 30.8876 16.6214 29.0238 17.8645C27.16 19.1076 25.7065 20.8753 24.8469 22.9442C23.9874 25.0131 23.7604 27.2904 24.1946 29.4883C24.6289 31.6861 25.7049 33.706 27.2866 35.2925C28.8684 36.8791 30.885 37.9612 33.0815 38.4021C35.2781 38.843 37.556 38.6229 39.6275 37.7697C41.699 36.9164 43.4711 35.4682 44.7199 33.6082C45.9686 31.7481 46.638 29.5597 46.6435 27.3193C46.66 25.8259 46.3786 24.3442 45.8157 22.9608C45.2528 21.5774 44.4198 20.3202 43.3653 19.2625C42.3109 18.2048 41.0561 17.368 39.6745 16.8009C38.2928 16.2339 36.8119 15.948 35.3185 15.96ZM36.9992 21.1791C36.9949 21.1471 37.0009 21.1146 37.0164 21.0863C37.049 21.0382 37.0851 20.9763 37.1332 20.9643C37.1813 20.9522 37.2277 21.0021 37.293 21.0347C37.1745 21.1567 37.2243 21.2238 37.3291 21.277C37.3544 21.2893 37.3762 21.3076 37.3927 21.3303C37.4199 21.4129 37.4568 21.4919 37.5027 21.5657C37.5738 21.6231 37.6532 21.6695 37.7381 21.7032C37.6687 21.7654 37.5952 21.8228 37.5182 21.8751C37.4439 21.9212 37.3635 21.9565 37.2793 21.9799C37.2107 21.9868 37.1416 21.9868 37.0731 21.9799C37.0745 21.9673 37.0745 21.9547 37.0731 21.9421L37.2174 21.8527C37.1659 21.7892 37.092 21.7393 37.0851 21.6809C37.0782 21.6225 37.1487 21.5623 37.1899 21.4936C37.1246 21.3887 37.0284 21.3406 36.9614 21.3853C36.7603 21.5193 36.7466 21.5572 36.8376 21.7015C36.707 21.7531 36.5816 21.8012 36.4475 21.8476C36.42 21.7118 36.5781 21.5881 36.4475 21.4661C36.4743 21.4204 36.5128 21.3828 36.559 21.3571C36.6053 21.3314 36.6576 21.3186 36.7105 21.32H36.8651C36.9476 21.3063 37.0095 21.2822 36.9992 21.1791ZM33.7512 18.2885C34.0158 18.3281 34.2822 18.3453 34.5469 18.3659C34.5952 18.3763 34.6453 18.3739 34.6924 18.3588C34.7394 18.3437 34.7817 18.3165 34.8149 18.28C34.8459 18.2439 34.9163 18.237 34.9696 18.2284C35.1758 18.1957 35.3855 18.1579 35.5934 18.1356C35.703 18.1261 35.8134 18.1313 35.9217 18.1511C36.176 18.1906 36.4372 18.2404 36.683 18.2851C36.7237 18.2917 36.7618 18.3096 36.793 18.3367C36.6881 18.3367 36.5816 18.3487 36.4767 18.3607C36.41 18.3657 36.3444 18.3814 36.2826 18.4071C36.188 18.4552 36.1004 18.5068 36.0952 18.646C36.0943 18.714 36.0706 18.7797 36.0279 18.8327C35.9852 18.8857 35.9261 18.9228 35.8598 18.9381C35.7212 18.987 35.5857 19.0444 35.4542 19.11C35.3855 19.1426 35.3855 19.1822 35.4542 19.2217C35.5487 19.275 35.645 19.3248 35.7498 19.3935C35.5883 19.4554 35.5883 19.4554 35.2514 19.3007L35.3941 19.5396C35.1793 19.5963 34.9559 19.6599 34.7325 19.7115C34.5243 19.7477 34.3296 19.8391 34.1688 19.9761C34.0066 20.0928 33.8134 20.1586 33.6137 20.1652C33.5089 20.1858 33.4264 20.203 33.4264 20.337C33.4264 20.3868 33.3783 20.4436 33.337 20.4865C33.2807 20.5369 33.2197 20.5818 33.1549 20.6206C33.1018 20.6586 33.0392 20.6812 32.974 20.6859C32.9089 20.6906 32.8437 20.6772 32.7857 20.6471C32.7277 20.6171 32.6792 20.5715 32.6454 20.5156C32.6117 20.4596 32.5941 20.3955 32.5946 20.3301C32.5813 20.2599 32.5773 20.1883 32.5826 20.117C32.6047 20.0357 32.6365 19.9572 32.6771 19.8833C32.7003 19.8514 32.7275 19.8225 32.7579 19.7974C33.05 19.4812 32.9847 19.1478 32.6084 18.9381C32.4503 18.8457 32.2747 18.7871 32.0928 18.7663C32.0281 18.7483 31.9671 18.7192 31.9124 18.6804C32.1633 18.6391 32.4056 18.6065 32.6445 18.5618C32.7466 18.5347 32.8461 18.4984 32.9418 18.4535C33.1928 18.3295 33.4717 18.2727 33.7512 18.2885ZM36.2327 20.0071C36.2323 20.0358 36.2253 20.0642 36.2122 20.0898C36.1991 20.1154 36.1802 20.1377 36.1571 20.1548C36.0607 20.2142 35.9588 20.2643 35.8529 20.3044C35.8069 20.3283 35.7539 20.3353 35.7033 20.3239C35.6527 20.3126 35.6077 20.2838 35.5762 20.2425C35.5436 20.203 35.4749 20.1909 35.4233 20.1669C35.4233 20.1531 35.4233 20.1411 35.4113 20.1291C35.4628 20.1084 35.5109 20.081 35.5608 20.0655C35.7223 20.0208 35.8804 19.9796 36.0385 19.94C36.1141 19.9229 36.2052 19.9229 36.2327 20.0071ZM30.5891 18.6426C30.663 18.6202 30.7421 18.6048 30.8194 18.5841C30.8967 18.5635 31.0016 18.5446 31.0359 18.4312C31.0462 18.4073 31.0618 18.3862 31.0814 18.3692C31.101 18.3522 31.1243 18.3399 31.1494 18.3332C31.1889 18.3332 31.225 18.3178 31.2628 18.3126C31.3796 18.2885 31.5016 18.2714 31.6219 18.2525C31.7181 18.2478 31.8136 18.234 31.9072 18.2112C32.0816 18.1434 32.2687 18.1146 32.4554 18.127C32.5156 18.127 32.5723 18.115 32.6273 18.1133C32.6823 18.1115 32.7373 18.1133 32.7991 18.1133C32.7973 18.1269 32.7973 18.1408 32.7991 18.1545C32.6003 18.3139 32.3634 18.4188 32.1117 18.4587C31.7633 18.5164 31.4308 18.6464 31.1356 18.8402C31.0445 18.9003 30.9483 18.9485 30.8761 18.8075C30.8641 18.78 30.8091 18.7646 30.7713 18.7594C30.6795 18.7514 30.5887 18.7353 30.4998 18.7113C30.5259 18.684 30.556 18.6608 30.5891 18.6426ZM29.9894 18.9691C29.9808 18.9691 29.9756 18.9588 29.9601 18.9502C30.0461 18.8041 30.1423 18.7594 30.2918 18.8282C30.3634 18.8649 30.4417 18.887 30.5219 18.8932C30.6022 18.8994 30.6828 18.8895 30.7592 18.8642C30.7681 18.8714 30.7762 18.8794 30.7833 18.8883C30.7592 18.921 30.7438 18.9691 30.7146 18.9811C30.6424 19.0103 30.5616 19.0155 30.4877 19.043C30.4706 19.0495 30.4552 19.0599 30.4427 19.0733C30.4302 19.0867 30.4209 19.1028 30.4155 19.1203C30.4155 19.1392 30.4516 19.1839 30.4791 19.1925L30.5771 19.2183C30.84 19.2973 31.103 19.3643 31.3676 19.4434C31.3934 19.4592 31.4119 19.4845 31.4192 19.5138C31.4171 19.5534 31.4107 19.5925 31.4003 19.6307C31.3521 19.8421 31.4088 19.9194 31.6271 19.9229C31.6291 19.9595 31.6179 19.9955 31.5955 20.0246C31.5731 20.0536 31.541 20.0736 31.5051 20.081C31.3624 20.117 31.2215 20.1617 31.084 20.2064C31.0187 20.227 30.95 20.2476 30.9706 20.3439C30.9701 20.3551 30.9672 20.3661 30.9622 20.3762C30.9572 20.3862 30.9501 20.3951 30.9414 20.4023C30.8802 20.4427 30.808 20.463 30.7347 20.4605C30.6615 20.4581 30.5908 20.4329 30.5324 20.3886C30.5082 20.3607 30.4917 20.3268 30.4848 20.2905C30.4778 20.2542 30.4806 20.2167 30.4928 20.1818C30.505 20.1469 30.5262 20.1159 30.5543 20.0918C30.5824 20.0678 30.6163 20.0516 30.6527 20.0449C30.7352 20.0242 30.8246 20.0191 30.9088 19.995C30.9281 19.9906 30.9465 19.9824 30.9627 19.9709C30.9789 19.9594 30.9927 19.9448 31.0033 19.928C31.0119 19.9074 30.9775 19.861 30.95 19.8335C30.786 19.6806 30.5802 19.5801 30.3588 19.5448C30.2917 19.5332 30.224 19.5251 30.156 19.5207C29.9962 19.5104 29.8347 19.4932 29.6731 19.476C29.6044 19.4657 29.5185 19.476 29.5133 19.3712C29.5094 19.3495 29.5104 19.3273 29.5163 19.3061C29.5223 19.2849 29.5329 19.2653 29.5474 19.2487C29.562 19.2322 29.58 19.2192 29.6003 19.2106C29.6206 19.2021 29.6426 19.1982 29.6646 19.1994C29.7718 19.1963 29.8786 19.1854 29.9842 19.1667C30.0323 19.1667 30.0993 19.1255 30.1062 19.0928C30.1217 19.0241 30.0736 18.9691 29.9894 18.9691ZM31.3917 22.1002C31.4329 22.1483 31.5085 22.2222 31.4965 22.2617C31.4842 22.3008 31.4585 22.3342 31.4238 22.3559C31.3892 22.3776 31.3479 22.3863 31.3075 22.3803C31.1633 22.3612 31.0181 22.3503 30.8727 22.3477C30.9975 22.1678 31.1744 22.0305 31.3796 21.9541C31.3435 21.9868 31.3178 22.0108 31.2782 22.0435C31.3192 22.0552 31.3577 22.0744 31.3917 22.1002ZM31.7972 32.1982C31.6799 32.2732 31.5725 32.3627 31.4776 32.4646C31.4221 32.5535 31.3858 32.653 31.371 32.7567C31.3318 32.9455 31.2801 33.1315 31.2164 33.3135C31.17 33.4183 31.0445 33.4854 30.9655 33.5799C30.9055 33.6608 30.8176 33.7166 30.7188 33.7363C30.62 33.756 30.5174 33.7382 30.431 33.6864C30.3863 33.8153 30.4723 33.8961 30.5238 33.9855C30.6011 34.1212 30.6011 34.1212 30.4705 34.214C30.3399 34.3068 30.2437 34.3996 30.1268 34.4976C30.0862 34.5349 30.0565 34.5827 30.041 34.6357C30.0256 34.6887 30.025 34.745 30.0392 34.7983C30.0376 34.894 30.0249 34.9891 30.0014 35.0819C29.9863 35.1302 29.9794 35.1807 29.9808 35.2314C29.9911 35.3293 30.022 35.4256 30.034 35.5235C30.0547 35.6954 30.0667 35.8552 30.0822 36.0185C30.0822 36.082 30.1045 36.1198 30.1801 36.1267C30.2093 36.1267 30.2488 36.1645 30.2626 36.1955C30.3073 36.2865 30.3468 36.3828 30.3863 36.4756C30.3607 36.4952 30.3314 36.5095 30.3002 36.5177C30.2689 36.5258 30.2364 36.5277 30.2044 36.5233C30.1725 36.5188 30.1417 36.508 30.1139 36.4916C30.0862 36.4751 30.0619 36.4533 30.0426 36.4275C29.9831 36.3145 29.8849 36.2266 29.7659 36.18C29.572 36.095 29.4156 35.9423 29.326 35.7504C29.2229 35.5441 29.106 35.3654 29.1387 35.1094C29.1576 35.0304 29.1468 34.9472 29.1085 34.8757C29.0702 34.8041 29.0069 34.749 28.9307 34.721C28.8998 34.7124 28.8792 34.6505 28.874 34.611C28.8551 34.4495 28.8465 34.2862 28.8311 34.1247C28.7984 33.7809 28.7572 33.4372 28.7366 33.0935C28.7211 32.8375 28.7366 32.578 28.7366 32.3219C28.7366 32.2051 28.7366 32.0899 28.7366 31.9782C28.7248 31.8289 28.6681 31.6865 28.5739 31.57C28.4798 31.4534 28.3525 31.3681 28.209 31.3252C28.1305 31.3099 28.0602 31.2667 28.0112 31.2034C27.9622 31.1402 27.9378 31.0613 27.9426 30.9815C27.9459 30.9107 27.9285 30.8405 27.8925 30.7794C27.8564 30.7184 27.8034 30.6691 27.7398 30.6378C27.5687 30.5427 27.4393 30.387 27.3772 30.2013C27.354 30.1461 27.3194 30.0963 27.2758 30.0552C27.2297 30.0122 27.1957 29.9577 27.1773 29.8974C27.1589 29.8371 27.1567 29.773 27.171 29.7115C27.1755 29.6263 27.1698 29.5409 27.1538 29.4572C27.1412 29.4008 27.136 29.343 27.1383 29.2853C27.1613 29.1206 27.2199 28.9628 27.3102 28.823C27.4132 28.6748 27.4975 28.5143 27.5611 28.3453C27.5972 28.255 27.602 28.1552 27.575 28.0618C27.5479 27.9684 27.4904 27.8867 27.4116 27.8297C27.3851 27.8163 27.3562 27.8086 27.3266 27.8072C27.297 27.8057 27.2674 27.8104 27.2397 27.8211C27.1862 27.8559 27.123 27.8727 27.0593 27.869C26.9956 27.8653 26.9348 27.8413 26.8857 27.8005C26.6744 27.6668 26.501 27.481 26.3822 27.2609C26.3609 27.2294 26.3302 27.2054 26.2945 27.1922C26.2435 27.1717 26.1896 27.1595 26.1347 27.1561C25.9851 27.1463 25.8455 27.0777 25.7463 26.9653C25.6875 26.9033 25.6153 26.8556 25.5351 26.8258C25.455 26.796 25.3691 26.7849 25.2841 26.7935C25.2604 26.7996 25.2356 26.7996 25.2119 26.7935C24.8695 26.7066 24.5571 26.5284 24.3079 26.2779C24.2719 26.2291 24.2464 26.1734 24.2331 26.1142C24.2197 26.055 24.2189 25.9937 24.2306 25.9342C24.3201 25.2448 24.476 24.5657 24.6963 23.9064C25.0296 22.8899 25.5108 21.9281 26.1244 21.0519C26.3513 20.7237 26.6142 20.4161 26.8617 20.0999C26.8977 20.0517 26.9356 20.0294 26.9905 20.0672C27.0271 20.0899 27.0679 20.1049 27.1105 20.1111C27.1531 20.1173 27.1965 20.1146 27.238 20.1033C27.4408 20.0792 27.6453 20.0878 27.8429 20.0466C28.0816 19.995 28.3151 19.9219 28.5406 19.8283C28.6238 19.7803 28.6949 19.7141 28.7488 19.6346C28.8027 19.5551 28.8379 19.4645 28.8517 19.3695C28.8654 19.3179 28.8843 19.2647 28.9015 19.2114C28.9617 19.0172 28.9617 19.0172 29.161 19.0619L29.5718 19.1547C29.4566 19.1959 29.3363 19.2354 29.2281 19.2836C29.1593 19.3076 29.1507 19.354 29.1971 19.4107C29.2813 19.5104 29.3552 19.6118 29.4394 19.7063C29.4635 19.7304 29.5236 19.751 29.5443 19.739C29.7161 19.6376 29.888 19.6823 30.0684 19.6685C30.0228 19.7476 29.9687 19.8213 29.9069 19.8885C29.8428 19.9357 29.7687 19.9675 29.6903 19.9813C29.4841 20.0225 29.2745 20.05 29.0699 20.0827C29.0602 20.1523 29.0249 20.2159 28.9709 20.261C28.9169 20.3061 28.8481 20.3295 28.7778 20.3267C28.5105 20.3706 28.26 20.4858 28.0526 20.6601C27.979 20.7006 27.9228 20.7667 27.8946 20.8459C27.8664 20.925 27.8682 21.0118 27.8996 21.0897C27.922 21.1567 27.9426 21.2392 28.0492 21.186C28.0646 21.186 28.1007 21.186 28.1213 21.2066C28.2227 21.2581 28.3172 21.3131 28.4169 21.3647C28.5166 21.4162 28.5888 21.4695 28.6902 21.43C28.7142 21.43 28.7469 21.4455 28.7469 21.442C28.7211 21.6139 28.6936 21.7548 28.6644 21.9198C28.7213 21.9221 28.7779 21.9095 28.8285 21.8833C28.8792 21.857 28.9221 21.8181 28.9531 21.7703C29.1473 21.4936 29.3501 21.2238 29.546 20.9522C29.5784 20.914 29.6077 20.8732 29.6336 20.8302C29.6882 20.7231 29.7778 20.6378 29.8875 20.5887C29.9973 20.5397 30.1206 20.5297 30.2368 20.5604C30.3709 20.5828 30.4637 20.612 30.4516 20.7735C30.4516 20.7976 30.5135 20.8388 30.5496 20.844C30.7111 20.8629 30.7919 20.844 31.0651 20.722C31.0755 20.7468 31.083 20.7727 31.0875 20.7993C31.0918 20.8353 31.0918 20.8716 31.0875 20.9076C31.0528 21.042 31.0687 21.1844 31.132 21.308C31.1953 21.4315 31.3018 21.5275 31.4312 21.5778L31.4845 21.6053C31.2883 21.7914 31.0326 21.9022 30.7627 21.918C30.5753 21.9177 30.3911 21.9662 30.2282 22.059C30.0922 22.123 29.9514 22.1764 29.8072 22.2188C29.7578 22.25 29.7128 22.2876 29.6731 22.3305L29.6921 22.3649L30.2248 22.3185C30.2042 22.4491 30.2248 22.5264 30.3623 22.5384C30.4138 22.5384 30.4585 22.6123 30.5238 22.6673C30.2935 22.712 30.1801 22.9646 29.8862 22.9028C29.9756 22.822 30.0443 22.7567 30.1148 22.6914C30.0083 22.5711 29.9808 22.5591 29.8381 22.6484C29.6955 22.7378 29.57 22.846 29.436 22.944C29.3999 22.9715 29.3673 23.0127 29.3277 23.0179C29.0923 23.0626 28.9754 23.2568 28.8242 23.4097C28.8142 23.4214 28.8033 23.4324 28.7915 23.4424C28.7619 23.4827 28.7237 23.5161 28.6798 23.5401C28.6358 23.5641 28.5872 23.5783 28.5372 23.5816C28.4904 23.5818 28.4452 23.5988 28.41 23.6297C28.369 23.6663 28.3423 23.7162 28.3344 23.7706C28.3435 23.8698 28.3218 23.9693 28.2723 24.0557C28.2228 24.1421 28.1479 24.2112 28.0577 24.2535C27.8931 24.3415 27.7361 24.4433 27.5886 24.5577C27.527 24.6218 27.4857 24.7025 27.4698 24.79C27.4539 24.8774 27.4642 24.9675 27.4992 25.0492C27.5272 25.1064 27.5417 25.1693 27.5417 25.2331C27.5417 25.2968 27.5272 25.3597 27.4992 25.4169C27.4872 25.4462 27.4185 25.4702 27.3738 25.4702C27.3291 25.4702 27.3033 25.429 27.293 25.3963C27.2586 25.2502 27.2311 25.0973 27.1951 24.9478C27.175 24.8974 27.149 24.8495 27.1177 24.8051C27.1076 24.8083 27.0978 24.8123 27.0885 24.8172V24.989C27.0798 24.9972 27.0699 25.0042 27.0593 25.0097C27.0215 24.9684 26.9854 24.9237 26.9424 24.8842C26.8869 24.8311 26.8252 24.7849 26.7585 24.7467C26.7234 24.7311 26.6836 24.7291 26.6471 24.7412C26.6106 24.7532 26.5798 24.7785 26.5609 24.812C26.4905 24.9083 26.4063 24.9942 26.3324 25.0818C26.2717 25.0072 26.2069 24.936 26.1382 24.8687C26.123 24.8569 26.1055 24.8485 26.0868 24.8441C26.0682 24.8396 26.0487 24.8392 26.0299 24.843C25.8873 24.8646 25.758 24.9387 25.6673 25.0509C25.5704 25.1667 25.4634 25.2737 25.3476 25.3705C25.2932 25.407 25.2549 25.463 25.2405 25.527C25.2261 25.5909 25.2368 25.6579 25.2703 25.7142C25.2873 25.7634 25.2915 25.816 25.2823 25.8672C25.2562 26.0053 25.2831 26.1481 25.3576 26.2672C25.4322 26.3864 25.5489 26.473 25.6845 26.5099C25.7561 26.5348 25.8343 26.5332 25.9049 26.5055C25.9755 26.4777 26.0338 26.4257 26.0694 26.3587C26.0986 26.2951 26.1193 26.2281 26.1502 26.1611C26.156 26.1417 26.1659 26.1238 26.1792 26.1086C26.1924 26.0933 26.2088 26.0811 26.2271 26.0726C26.2455 26.0642 26.2655 26.0597 26.2857 26.0595C26.3059 26.0594 26.3259 26.0635 26.3444 26.0717C26.3673 26.0956 26.3845 26.1245 26.3946 26.156C26.4047 26.1876 26.4075 26.2211 26.4028 26.2539C26.3771 26.3656 26.3432 26.4753 26.3014 26.5821C26.2636 26.7041 26.2894 26.7539 26.4183 26.7883C26.5111 26.8055 26.6056 26.8175 26.7018 26.8296C26.7273 26.8291 26.7525 26.8344 26.7756 26.8449C26.7988 26.8554 26.8193 26.8709 26.8358 26.8903C26.8522 26.9097 26.8641 26.9325 26.8707 26.957C26.8772 26.9816 26.8783 27.0073 26.8737 27.0323C26.8639 27.1716 26.8679 27.3115 26.8857 27.4499C26.9076 27.5319 26.9516 27.6062 27.0129 27.6648C27.0341 27.6793 27.0587 27.688 27.0843 27.6902C27.1099 27.6923 27.1357 27.6877 27.159 27.6768C27.2006 27.6498 27.248 27.6332 27.2974 27.6285C27.3467 27.6237 27.3965 27.6308 27.4425 27.6493C27.4793 27.6633 27.5173 27.6743 27.5559 27.6819C27.7278 27.7249 27.7708 27.694 27.8876 27.5702C27.9624 27.4986 28.049 27.4405 28.1437 27.3984C28.1583 27.3944 28.1737 27.3942 28.1884 27.3978C28.2032 27.4014 28.2167 27.4087 28.2279 27.419C28.235 27.4313 28.2387 27.4452 28.2387 27.4594C28.2387 27.4736 28.235 27.4875 28.2279 27.4998C28.1334 27.584 28.1832 27.6252 28.2674 27.6613L28.4667 27.7438C28.3379 27.5359 28.508 27.4637 28.5853 27.3382C28.6157 27.3578 28.645 27.379 28.673 27.4018C28.7282 27.4618 28.7964 27.5085 28.8723 27.5382C28.9482 27.568 29.0299 27.5801 29.1112 27.5737H29.1353C29.3544 27.5774 29.5641 27.6633 29.723 27.8143C29.9448 28.0068 30.2112 28.1409 30.498 28.2044C30.5567 28.2128 30.6128 28.2337 30.6626 28.2657C30.7124 28.2977 30.7548 28.3401 30.7867 28.39C30.8366 28.4759 30.9053 28.5618 30.9586 28.6426C30.9831 28.664 31.0011 28.6919 31.0104 28.7231C31.0197 28.7542 31.02 28.7874 31.0111 28.8188C31.0023 28.8501 30.9848 28.8783 30.9606 28.9C30.9364 28.9218 30.9065 28.9362 30.8744 28.9416L30.7403 29.0069C30.7764 29.0757 30.8177 29.0963 30.883 29.0585C30.9309 29.0302 30.9832 29.0099 31.0376 28.9983C31.0804 29.0036 31.1199 29.0236 31.1494 29.055C31.1494 29.055 31.1304 29.1032 31.1219 29.1289C31.1133 29.1547 31.1047 29.1942 31.1098 29.1977C31.1347 29.2141 31.1644 29.2214 31.194 29.2183C31.2181 29.2159 31.2403 29.2042 31.2559 29.1856C31.2791 29.159 31.3078 29.1377 31.3399 29.1231C31.3721 29.1084 31.407 29.1009 31.4424 29.1009C31.4777 29.1009 31.5126 29.1084 31.5448 29.1231C31.5769 29.1377 31.6056 29.159 31.6288 29.1856C31.6443 29.2011 31.6735 29.2097 31.6735 29.2217C31.6907 29.4176 31.8264 29.3386 31.9089 29.3042C31.9504 29.2892 31.9945 29.2828 32.0386 29.2855C32.0826 29.2881 32.1256 29.2998 32.165 29.3197C32.3712 29.4091 32.586 29.4812 32.8008 29.5551C32.8327 29.5639 32.8609 29.5827 32.8813 29.6087C32.9017 29.6346 32.9133 29.6665 32.9143 29.6995C32.9368 29.8653 32.9226 30.0341 32.8727 30.1939C32.8228 30.3536 32.7384 30.5005 32.6256 30.624C32.608 30.6463 32.5849 30.6635 32.5585 30.6739C32.464 30.7151 32.4571 30.7925 32.4554 30.8801C32.4557 31.0993 32.4448 31.3184 32.4228 31.5366C32.3948 31.6711 32.3485 31.8012 32.2853 31.9232C32.2372 32.0212 32.1891 32.126 32.0309 32.0951C31.9806 32.094 31.9314 32.1104 31.8917 32.1415C31.8574 32.157 31.8264 32.181 31.7972 32.1982ZM43.6756 31.3132C43.588 31.5297 43.5347 31.7651 43.4608 31.9903C43.436 32.0573 43.4037 32.1213 43.3646 32.181C43.2546 32.389 43.2546 32.389 43.0208 32.3529C42.9776 32.3387 42.9375 32.3161 42.903 32.2863C42.8686 32.2565 42.8403 32.2202 42.82 32.1794C42.7997 32.1386 42.7877 32.0942 42.7847 32.0488C42.7817 32.0033 42.7878 31.9577 42.8026 31.9146C42.861 31.8401 42.91 31.7587 42.9487 31.6723C42.9702 31.5785 42.9702 31.4809 42.9487 31.3871C42.9449 31.3195 42.9623 31.2525 42.9983 31.1952C43.0343 31.138 43.0872 31.0933 43.1497 31.0674C43.1831 31.0634 43.2144 31.049 43.2391 31.0262C43.3525 30.9127 43.4659 30.7959 43.5725 30.6825C43.5978 30.6459 43.6192 30.6067 43.6361 30.5656C43.7083 30.8079 43.777 31.0537 43.6756 31.3132ZM45.8255 25.4788C45.7934 25.437 45.7511 25.4041 45.7026 25.3834C45.6542 25.3626 45.6012 25.3546 45.5488 25.3602C45.1759 25.4101 44.827 25.2949 44.4781 25.1884C44.235 25.1213 44.0033 25.0182 43.7907 24.8825C43.6159 24.7884 43.4265 24.7245 43.2305 24.6934C43.2421 24.7231 43.249 24.7544 43.2511 24.7862C43.2064 25.0578 43.4092 25.1867 43.5673 25.3413C43.6361 25.4066 43.6979 25.4754 43.7736 25.5527L44.241 25.4273C44.2974 25.4065 44.3593 25.4065 44.4157 25.4273C44.4721 25.4481 44.5192 25.4883 44.5486 25.5407C44.6294 25.6381 44.7166 25.73 44.8098 25.8156C44.894 25.9084 44.8734 25.9325 44.7772 26.003C44.54 26.1748 44.2616 26.3054 44.0898 26.5494C44.0662 26.5804 44.0371 26.6066 44.0038 26.6268C43.8543 26.7247 43.7031 26.8175 43.5536 26.9155C43.5018 26.9449 43.4442 26.9629 43.3848 26.968C43.3254 26.9732 43.2656 26.9655 43.2095 26.9454C43.1534 26.9253 43.1023 26.8934 43.0596 26.8517C43.017 26.8101 42.9838 26.7597 42.9624 26.7041C42.8974 26.4829 42.7854 26.2783 42.6342 26.1043C42.5621 25.9978 42.5043 25.8823 42.4623 25.7606C42.4025 25.625 42.2949 25.5161 42.1599 25.4547C42.1011 25.4318 42.0482 25.3959 42.0051 25.3498C41.962 25.3037 41.9297 25.2486 41.9107 25.1884C41.8505 25.0165 41.7663 24.855 41.6959 24.6866C41.524 24.7553 41.524 24.7553 41.5739 24.9237C41.6568 25.2085 41.7813 25.4796 41.9433 25.728C42.196 26.1284 42.4915 26.5099 42.6496 26.9653C42.6909 27.0856 42.7218 27.2111 42.7682 27.3262C42.8404 27.4981 42.9177 27.5204 43.0827 27.4259C43.0981 27.4134 43.1165 27.4051 43.136 27.4018H43.7736C43.7492 27.5755 43.7147 27.7477 43.6704 27.9174C43.6347 28.0587 43.5658 28.1895 43.4694 28.2989C43.323 28.4258 43.1667 28.5407 43.0019 28.6426C42.9599 28.6685 42.9251 28.7046 42.9005 28.7474C42.7184 29.0911 42.5448 29.4211 42.3627 29.7545C42.318 29.8387 42.3042 29.9074 42.3627 29.9779C42.6136 30.2477 42.5345 30.5776 42.5448 30.8938C42.5448 30.9299 42.4881 30.9746 42.4451 30.9987C42.242 31.0897 42.0605 31.2226 41.9124 31.3888C41.8535 31.4607 41.8122 31.5455 41.7921 31.6362C41.7608 31.9078 41.6736 32.1699 41.5361 32.4061C41.3333 32.7498 41.1545 33.1124 40.9689 33.4682C40.9539 33.5074 40.928 33.5416 40.8942 33.5665C40.8604 33.5915 40.8201 33.6063 40.7782 33.6091L40.2386 33.6314C40.1612 33.6314 40.0839 33.6555 40.0031 33.6607C39.9841 33.6634 39.9646 33.6622 39.946 33.6571C39.9274 33.6521 39.91 33.6434 39.8949 33.6314C39.8278 33.5816 39.7729 33.5215 39.723 33.4768C39.725 33.2961 39.6787 33.1181 39.589 32.9612C39.5544 32.9003 39.5141 32.8427 39.4687 32.7894C39.3523 32.6196 39.2883 32.4194 39.2848 32.2137C39.2751 32.0966 39.2393 31.9833 39.18 31.882C39.0452 31.6752 38.9605 31.4398 38.9325 31.1946C38.9332 31.0571 38.9588 30.9208 39.0081 30.7925C39.0255 30.7362 39.0492 30.682 39.0786 30.6309C39.1324 30.5207 39.1422 30.3941 39.1061 30.2769C39.0167 29.8675 38.841 29.482 38.5905 29.1461C38.5619 29.0999 38.5468 29.0467 38.5468 28.9923C38.5468 28.938 38.5619 28.8847 38.5905 28.8385C38.6266 28.7612 38.673 28.6873 38.7177 28.6117C38.7624 28.536 38.7606 28.4931 38.6799 28.4639C38.6406 28.4529 38.6053 28.4308 38.5782 28.4004C38.5511 28.3699 38.5333 28.3323 38.5269 28.292C38.5269 28.268 38.4582 28.2336 38.4255 28.2353C38.3469 28.2443 38.2672 28.235 38.1927 28.2081C38.1182 28.1813 38.0508 28.1377 37.9959 28.0806C37.9392 28.0239 37.8155 28.0239 37.7192 28.0188C37.6483 28.0224 37.5782 28.0363 37.5113 28.06L36.5403 28.292C36.4629 28.31 36.382 28.3069 36.3061 28.283C36.2303 28.2591 36.1622 28.2154 36.109 28.1563C36.0804 28.1235 36.0481 28.0941 36.0127 28.0686C35.9434 28.0262 35.8856 27.9673 35.8445 27.8971C35.8035 27.8269 35.7804 27.7477 35.7773 27.6665C35.7719 27.6298 35.7577 27.595 35.7358 27.5651C35.7139 27.5351 35.6851 27.5109 35.6519 27.4946C35.358 27.4001 35.3185 27.1337 35.2377 26.9017C35.2329 26.8659 35.2354 26.8294 35.2452 26.7945C35.2549 26.7596 35.2717 26.7271 35.2944 26.699C35.331 26.6653 35.356 26.6208 35.3655 26.5719C35.3751 26.5231 35.3689 26.4725 35.3477 26.4274C35.2948 26.3069 35.2729 26.175 35.284 26.0438C35.2951 25.9127 35.3388 25.7864 35.4113 25.6764C35.4857 25.513 35.6004 25.3711 35.7447 25.264C35.8014 25.2296 35.8168 25.1299 35.8701 25.0921C36.0323 24.9418 36.1465 24.7469 36.1983 24.5319C36.2444 24.4441 36.3096 24.3678 36.3891 24.3085C36.506 24.1951 36.6331 24.0937 36.75 23.9803C36.8153 23.9201 36.86 23.915 36.9081 23.9974C36.9182 24.0137 36.932 24.0274 36.9485 24.0373C36.9649 24.0471 36.9835 24.0529 37.0026 24.0542C37.1745 24.0335 37.3618 24.0078 37.5405 23.9837C37.5932 23.9677 37.6473 23.9568 37.702 23.951C37.9605 23.9573 38.2168 23.9019 38.4496 23.7895C38.5063 23.7717 38.5677 23.776 38.6214 23.8015C38.6404 23.8101 38.6404 23.8823 38.6369 23.9236C38.6376 23.9848 38.6528 24.0451 38.6812 24.0994C38.7095 24.1538 38.7503 24.2007 38.8002 24.2363L39.0631 24.4907C39.082 24.5044 39.0992 24.5285 39.1198 24.5319C39.2917 24.5611 39.4773 24.5938 39.6594 24.6092C39.7488 24.6178 39.8089 24.5766 39.8313 24.4666C39.8553 24.3858 39.9516 24.3222 40.0134 24.2518C40.0171 24.265 40.0223 24.2777 40.0289 24.2896C40.0662 24.3296 40.1083 24.3648 40.1544 24.3944C40.2522 24.447 40.3553 24.4891 40.462 24.5199C40.5401 24.531 40.6193 24.531 40.6974 24.5199C40.7408 24.5156 40.7846 24.5156 40.828 24.5199C41.0153 24.5474 41.2044 24.5714 41.3917 24.6092C41.4225 24.6171 41.4548 24.6163 41.4852 24.6069C41.5155 24.5975 41.5426 24.5799 41.5635 24.556C41.6462 24.5142 41.7114 24.4445 41.7476 24.3593C41.7838 24.274 41.7886 24.1787 41.7612 24.0902C41.7429 24.011 41.7297 23.9306 41.7217 23.8497C41.6629 23.8271 41.5998 23.818 41.537 23.8231C41.4743 23.8281 41.4135 23.8472 41.359 23.8789C41.294 23.9221 41.2162 23.9419 41.1385 23.9351C41.0607 23.9282 40.9876 23.895 40.9311 23.8411C40.7422 23.7238 40.6041 23.5398 40.5445 23.3255C40.7266 23.4149 40.8005 23.3032 40.8882 23.1399C40.6613 23.1932 40.4568 23.2361 40.2558 23.2929C40.236 23.2976 40.2177 23.307 40.2023 23.3202C40.1869 23.3335 40.1749 23.3503 40.1674 23.3691C40.1598 23.388 40.1569 23.4083 40.1588 23.4286C40.1607 23.4488 40.1674 23.4683 40.1784 23.4853C40.1938 23.5081 40.2011 23.5353 40.199 23.5627C40.1915 23.6081 40.1788 23.6524 40.1612 23.695C40.1045 23.6709 40.0203 23.6623 39.9894 23.6177C39.9481 23.5455 39.9327 23.4647 39.8416 23.4355C39.8345 23.4321 39.8283 23.427 39.8235 23.4208C39.8187 23.4145 39.8155 23.4072 39.8141 23.3994C39.8313 23.2087 39.6629 23.1158 39.5838 22.9766C39.5666 22.9423 39.4979 22.9217 39.4498 22.9199C39.3881 22.9197 39.3273 22.9049 39.2724 22.8769C39.2175 22.8488 39.1699 22.8082 39.1336 22.7584C39.1067 22.7144 39.0717 22.6759 39.0305 22.645C38.9669 22.5969 38.8895 22.5642 38.8294 22.6364C38.8136 22.6504 38.801 22.6676 38.7924 22.6869C38.7837 22.7061 38.7793 22.727 38.7793 22.7481C38.7793 22.7692 38.7837 22.7901 38.7924 22.8093C38.801 22.8286 38.8136 22.8458 38.8294 22.8598C38.9386 22.991 39.0777 23.0942 39.235 23.1605C39.3432 23.1932 39.3931 23.2929 39.4446 23.3874C39.2178 23.5094 39.0683 23.4681 38.9462 23.2619C38.9072 23.2062 38.8641 23.1533 38.8174 23.1038C38.7418 23.0056 38.6591 22.9132 38.5699 22.8271C38.4513 22.7189 38.2159 22.7103 38.1884 22.9199C38.1842 22.9421 38.1785 22.9639 38.1712 22.9852L38.0904 22.9612C38.023 22.9323 37.9471 22.9307 37.8785 22.9567C37.8099 22.9826 37.7541 23.0341 37.7227 23.1004C37.6935 23.1451 37.6488 23.1846 37.6161 23.2258C37.5825 23.2584 37.5551 23.2968 37.5354 23.3393C37.5164 23.4232 37.474 23.5 37.4132 23.5608C37.3524 23.6216 37.2755 23.664 37.1916 23.683C36.9647 23.7222 36.7346 23.7412 36.5042 23.7397C36.4682 23.7397 36.408 23.6761 36.4046 23.6417C36.3857 23.4847 36.3857 23.3261 36.4046 23.1691C36.4209 23.0916 36.4647 23.0225 36.5278 22.9745C36.5909 22.9265 36.6692 22.9029 36.7483 22.9079H37.226C37.2844 22.9079 37.324 22.889 37.3171 22.8185C37.3145 22.7905 37.3145 22.7623 37.3171 22.7343C37.3497 22.547 37.3412 22.5247 37.171 22.4233C37.1212 22.3941 37.0645 22.3735 37.0129 22.3442C36.9889 22.3288 36.9562 22.2996 36.9596 22.2807C36.9629 22.2659 36.9699 22.2522 36.9798 22.2408C36.9897 22.2294 37.0022 22.2207 37.0164 22.2153C37.0763 22.1977 37.1379 22.1867 37.2002 22.1827C37.3261 22.1879 37.4506 22.1552 37.5576 22.0887C37.6646 22.0222 37.749 21.925 37.8 21.8098C37.8255 21.745 37.8683 21.6884 37.9238 21.6463C37.9792 21.6041 38.0452 21.5781 38.1145 21.5709C38.3396 21.5348 38.3826 21.4781 38.4118 21.2427C38.4266 21.1832 38.4479 21.1256 38.4754 21.0708H38.5218C38.5596 21.1504 38.5918 21.2325 38.618 21.3166C38.624 21.36 38.644 21.4004 38.675 21.4314C38.7061 21.4624 38.7464 21.4824 38.7899 21.4884C38.8762 21.4962 38.963 21.4962 39.0494 21.4884C39.1989 21.4695 39.3449 21.4403 39.4945 21.4197C39.5477 21.4197 39.5804 21.4197 39.5993 21.3389C39.6182 21.2581 39.6852 21.2324 39.7368 21.1842C39.7883 21.1361 39.8553 21.1086 39.8588 21.0124C39.8743 20.9607 39.9058 20.9153 39.9487 20.8826C39.9916 20.8499 40.0437 20.8316 40.0977 20.8302C40.1449 20.8415 40.1861 20.8704 40.2128 20.911C40.2425 20.9653 40.2656 21.023 40.2815 21.0828C40.3597 21.0134 40.4171 20.9236 40.4474 20.8235C40.4778 20.7234 40.4798 20.6169 40.4534 20.5157C40.394 20.5339 40.333 20.5466 40.2712 20.5535C40.1851 20.5656 40.0978 20.5656 40.0117 20.5535C39.7643 20.4986 39.7282 20.3817 39.8605 20.1772C39.9052 20.105 39.9585 19.9572 39.9344 19.9418C39.8416 19.873 39.7625 19.9589 39.6904 20.0191C39.5264 20.1472 39.4062 20.3232 39.3467 20.5226C39.3011 20.6974 39.2293 20.8643 39.1336 21.0175C39.094 21.0846 38.972 21.1103 38.8827 21.1224C38.85 21.1224 38.7985 21.0502 38.7624 21.0038C38.729 20.9529 38.6986 20.9001 38.6713 20.8457C38.665 20.8574 38.6609 20.8703 38.6593 20.8835L38.1334 20.911C38.125 20.8868 38.1181 20.8621 38.1128 20.8371C38.0354 20.4573 38.0028 20.5089 38.3671 20.3645C38.4748 20.3013 38.5712 20.2206 38.6524 20.1256C38.7366 20.0552 38.8242 19.983 38.8999 19.9125C38.9164 19.9 38.9314 19.8856 38.9445 19.8696C39.192 19.5396 39.5615 19.4846 39.9327 19.4262C40.3039 19.3678 40.5874 19.5156 40.9071 19.5981L41.4381 19.7527C41.1958 19.9469 40.9758 19.7527 40.7696 19.7888C40.7696 19.8008 40.7558 19.8129 40.7576 19.8163C40.8761 19.9448 41.0029 20.0654 41.1374 20.1772C41.162 20.1896 41.1892 20.1963 41.2168 20.1966C41.2445 20.197 41.2718 20.1911 41.2968 20.1793C41.3218 20.1676 41.3438 20.1503 41.3611 20.1288C41.3785 20.1073 41.3907 20.0821 41.3969 20.0552C41.4175 19.9796 41.4501 19.9435 41.5275 19.9435C41.5774 19.9428 41.626 19.9274 41.6672 19.8993C41.7085 19.8712 41.7406 19.8316 41.7595 19.7854C41.799 19.7063 41.8523 19.6702 41.9313 19.7029C41.9193 19.7957 41.9605 19.8369 42.0499 19.8077C42.0847 19.7966 42.1177 19.7804 42.1478 19.7596C42.2538 19.6931 42.3793 19.6646 42.5036 19.6788C42.6796 19.6691 42.8533 19.6338 43.0191 19.574C43.1738 19.5327 43.258 19.5482 43.3388 19.6341C44.07 20.3939 44.6913 21.2523 45.1845 22.1844C45.7714 23.2914 46.1654 24.4903 46.3496 25.7297C46.3513 25.7428 46.3513 25.7561 46.3496 25.7692C46.0918 25.8345 45.9664 25.6318 45.8203 25.4788H45.8255Z" fill="#68E1FD"/>
<path d="M46.3685 25.776C46.0901 25.8344 45.9646 25.6316 45.8186 25.4787C45.7867 25.4366 45.7444 25.4035 45.6959 25.3828C45.6474 25.362 45.5943 25.3542 45.5419 25.3601C45.169 25.4117 44.8218 25.2948 44.4712 25.1882C44.228 25.1207 43.9963 25.017 43.7838 24.8806C43.6103 24.7857 43.4211 24.7228 43.2253 24.695C43.2361 24.7244 43.2431 24.755 43.2459 24.7861C43.2013 25.0576 43.4023 25.1865 43.5622 25.3412C43.6292 25.4048 43.6928 25.4752 43.7684 25.5526L44.2375 25.4271C44.2937 25.4068 44.3552 25.4071 44.4112 25.4278C44.4672 25.4486 44.5141 25.4885 44.5434 25.5405C44.6237 25.6384 44.711 25.7303 44.8046 25.8155C44.8906 25.9083 44.8699 25.9324 44.772 26.0028C44.5348 26.1747 44.2564 26.3036 44.0846 26.5476C44.0601 26.5788 44.0305 26.6055 43.9969 26.6266L43.545 26.9154C43.4934 26.9448 43.436 26.9628 43.3769 26.9681C43.3177 26.9733 43.2581 26.9658 43.2021 26.9459C43.1461 26.9259 43.0951 26.8942 43.0526 26.8527C43.01 26.8113 42.9769 26.7611 42.9555 26.7057C42.8908 26.4842 42.7795 26.2791 42.629 26.1042C42.5577 25.9972 42.4999 25.8818 42.4571 25.7605C42.399 25.6243 42.2916 25.515 42.1564 25.4546C42.0976 25.4316 42.0447 25.3958 42.0016 25.3497C41.9585 25.3036 41.9262 25.2484 41.9072 25.1882C41.8488 25.0164 41.7646 24.8445 41.6907 24.6864C41.5188 24.7552 41.5188 24.7552 41.5687 24.9219C41.6522 25.2073 41.7773 25.4788 41.9399 25.7279C42.1942 26.1283 42.4881 26.5098 42.6462 26.9652C42.6874 27.0855 42.7184 27.2092 42.7648 27.3261C42.8369 27.4979 42.9143 27.522 43.0792 27.424C43.0945 27.4127 43.1121 27.4051 43.1308 27.4017H43.7701C43.7456 27.5754 43.7112 27.7475 43.667 27.9172C43.6308 28.0581 43.5625 28.1886 43.4676 28.2988C43.3204 28.4253 43.1635 28.5402 42.9985 28.6425C42.957 28.6704 42.9219 28.7067 42.8954 28.749C42.7149 29.0927 42.5431 29.4244 42.3592 29.7578C42.3326 29.7889 42.3179 29.8285 42.3179 29.8695C42.3179 29.9104 42.3326 29.9501 42.3592 29.9812C42.6084 30.2493 42.531 30.5809 42.5396 30.8954C42.5396 30.9315 42.4829 30.9762 42.4434 31.0003C42.2404 31.0923 42.0585 31.2251 41.9089 31.3904C41.8502 31.4622 41.8095 31.547 41.7904 31.6378C41.7568 31.9094 41.6685 32.1713 41.5309 32.4077C41.3315 32.7514 41.1511 33.114 40.9672 33.4698C40.9515 33.5086 40.9254 33.5423 40.8917 33.5671C40.858 33.592 40.8181 33.6071 40.7764 33.6107C40.5943 33.6227 40.4121 33.6296 40.23 33.6433C40.1509 33.6433 40.0736 33.6674 39.9945 33.6726C39.9575 33.6708 39.9223 33.6562 39.8948 33.6313C39.8295 33.5797 39.7711 33.5196 39.723 33.4749C39.7237 33.2941 39.6769 33.1163 39.5872 32.9594C39.5515 32.8996 39.5119 32.8422 39.4687 32.7875C39.3503 32.6192 39.2851 32.4193 39.2813 32.2135C39.2725 32.0966 39.2372 31.9832 39.1782 31.8819C39.0437 31.6748 38.9585 31.4396 38.929 31.1945C38.9309 31.0569 38.9571 30.9207 39.0064 30.7923C39.0223 30.7319 39.0466 30.6741 39.0785 30.6205C39.131 30.5104 39.1402 30.3847 39.1043 30.2682C39.0143 29.8585 38.8386 29.4726 38.5888 29.1357C38.5605 29.09 38.5455 29.0373 38.5455 28.9836C38.5455 28.9298 38.5605 28.8772 38.5888 28.8315C38.6273 28.7531 38.6709 28.6773 38.7194 28.6047C38.7623 28.5376 38.7606 28.4844 38.6781 28.4551C38.6388 28.445 38.6034 28.4231 38.5767 28.3924C38.55 28.3617 38.5332 28.3237 38.5286 28.2833C38.5286 28.2575 38.4599 28.2231 38.4255 28.2249C38.3471 28.2335 38.2678 28.2241 38.1936 28.1973C38.1194 28.1705 38.0523 28.127 37.9976 28.0702C37.9409 28.0135 37.8154 28.0135 37.7192 28.0083C37.6483 28.0121 37.5783 28.026 37.5113 28.0496L36.542 28.2816C36.4643 28.2997 36.3831 28.2966 36.307 28.2728C36.2308 28.2489 36.1624 28.2051 36.109 28.1458C36.0794 28.1139 36.0472 28.0846 36.0127 28.0582C35.9431 28.0157 35.8853 27.9565 35.8445 27.886C35.8036 27.8154 35.7811 27.7358 35.779 27.6543C35.772 27.6191 35.7569 27.5859 35.7348 27.5576C35.7127 27.5292 35.6843 27.5065 35.6518 27.4911C35.358 27.3965 35.3184 27.1302 35.2394 26.8964C35.2338 26.861 35.2359 26.8247 35.2453 26.79C35.2548 26.7554 35.2715 26.7231 35.2944 26.6954C35.3312 26.6614 35.3561 26.6166 35.3657 26.5675C35.3753 26.5183 35.369 26.4674 35.3477 26.4221C35.2951 26.3017 35.2736 26.1701 35.285 26.0392C35.2964 25.9083 35.3404 25.7824 35.413 25.6729C35.4864 25.5097 35.6006 25.3683 35.7446 25.2621C35.8013 25.2243 35.8151 25.1264 35.8701 25.0817C36.0316 24.9305 36.1462 24.736 36.2 24.5215C36.2447 24.4333 36.3088 24.3563 36.3874 24.2963C36.5059 24.1846 36.6331 24.0815 36.7517 23.9715C36.8153 23.9114 36.8599 23.9028 36.9098 23.9887C36.92 24.0044 36.9337 24.0175 36.9498 24.027C36.9659 24.0366 36.9839 24.0423 37.0026 24.0437C37.1744 24.0248 37.3618 23.9973 37.5405 23.9715C37.5933 23.9564 37.6474 23.9461 37.702 23.9406C37.9619 23.9436 38.2187 23.8847 38.4513 23.7688C38.5083 23.7521 38.5695 23.757 38.6231 23.7825C38.642 23.7911 38.642 23.8633 38.6386 23.9062C38.6404 23.9683 38.657 24.0289 38.6869 24.0833C38.7167 24.1377 38.7591 24.1842 38.8105 24.219C38.8947 24.3049 38.9823 24.3909 39.0717 24.4699C39.0889 24.4871 39.1078 24.5094 39.1284 24.5129C39.3002 24.5421 39.4858 24.5747 39.6663 24.5902C39.7574 24.5988 39.8175 24.5575 39.8484 24.4476C39.8708 24.3651 39.9653 24.3032 40.0203 24.2328L40.0375 24.2706C40.0754 24.3106 40.1181 24.3459 40.1647 24.3754C40.2617 24.4287 40.3643 24.4713 40.4705 24.5026C40.5491 24.5099 40.6282 24.507 40.706 24.494C40.7489 24.4914 40.7919 24.4914 40.8349 24.494C41.0239 24.5215 41.2129 24.5455 41.4003 24.585C41.4312 24.5913 41.4632 24.5895 41.4933 24.5798C41.5234 24.5702 41.5505 24.5531 41.5721 24.5301C41.6536 24.4876 41.7178 24.418 41.7535 24.3333C41.7893 24.2486 41.7944 24.1541 41.768 24.0661C41.7497 23.9869 41.7371 23.9065 41.7302 23.8255C41.6714 23.8021 41.608 23.7925 41.5449 23.7973C41.4818 23.802 41.4206 23.8211 41.3659 23.853C41.3007 23.896 41.2228 23.9155 41.145 23.9083C41.0672 23.9011 40.9942 23.8677 40.938 23.8134C40.75 23.699 40.612 23.518 40.5513 23.3065C40.7232 23.3976 40.8091 23.2876 40.895 23.1243C40.6682 23.1776 40.4637 23.2188 40.2626 23.2755C40.2428 23.2801 40.2244 23.2895 40.209 23.3028C40.1935 23.3161 40.1816 23.3329 40.1742 23.3519C40.1667 23.3708 40.164 23.3913 40.1662 23.4115C40.1685 23.4318 40.1756 23.4511 40.187 23.468C40.2012 23.4919 40.2083 23.5193 40.2076 23.5471C40.1978 23.5916 40.1846 23.6352 40.1681 23.6777C40.1114 23.6536 40.0289 23.6433 39.9962 23.6003C39.9567 23.5299 39.9395 23.4474 39.8484 23.4182C39.8413 23.4148 39.8351 23.4097 39.8303 23.4034C39.8256 23.3972 39.8223 23.3898 39.8209 23.3821C39.8381 23.1913 39.6697 23.0985 39.5907 22.9576C39.5548 22.9223 39.5069 22.9021 39.4566 22.9009C39.395 22.9016 39.3341 22.8873 39.2793 22.8592C39.2245 22.831 39.1774 22.7899 39.1421 22.7394C39.1125 22.6969 39.0766 22.6592 39.0356 22.6277C38.9737 22.5778 38.8964 22.5469 38.8362 22.6191C38.82 22.6326 38.8069 22.6496 38.798 22.6687C38.789 22.6879 38.7844 22.7088 38.7844 22.7299C38.7844 22.7511 38.789 22.7719 38.798 22.7911C38.8069 22.8103 38.82 22.8272 38.8362 22.8408C38.9446 22.9729 39.0831 23.0772 39.2401 23.1449C39.3484 23.1776 39.3999 23.2755 39.4497 23.3718C39.4109 23.4031 39.3652 23.4249 39.3165 23.4355C39.2677 23.4461 39.2171 23.4452 39.1688 23.4328C39.1204 23.4205 39.0756 23.3971 39.0378 23.3644C39.0001 23.3317 38.9705 23.2907 38.9514 23.2446C38.9133 23.1885 38.8708 23.1357 38.8242 23.0865C38.7466 22.9889 38.6634 22.896 38.575 22.8081C38.4564 22.7016 38.221 22.693 38.1952 22.9026C38.1895 22.9247 38.1826 22.9465 38.1746 22.9679L38.0973 22.9456C38.0299 22.9161 37.9537 22.914 37.8847 22.9396C37.8158 22.9653 37.7595 23.0167 37.7278 23.0831C37.6941 23.1269 37.6579 23.1687 37.6195 23.2085C37.5858 23.2413 37.5589 23.2804 37.5405 23.3237C37.5217 23.4076 37.4794 23.4846 37.4185 23.5454C37.3577 23.6063 37.2808 23.6486 37.1968 23.6674C36.9697 23.7062 36.7397 23.7257 36.5094 23.7258C36.4767 23.7258 36.4148 23.6622 36.4114 23.6261C36.3934 23.4697 36.3934 23.3117 36.4114 23.1552C36.4271 23.0773 36.4707 23.0078 36.5339 22.9597C36.5972 22.9116 36.6759 22.8883 36.7551 22.894H37.2329C37.2947 22.894 37.3325 22.8768 37.3257 22.8047C37.3214 22.7773 37.3214 22.7495 37.3257 22.7222C37.3549 22.5349 37.3463 22.5142 37.1779 22.4128C37.1263 22.3819 37.0696 22.3613 37.0198 22.3321C36.9699 22.3029 36.9648 22.2874 36.9665 22.2668C36.9703 22.2523 36.9774 22.2388 36.9873 22.2275C36.9971 22.2162 37.0094 22.2073 37.0232 22.2015C37.0838 22.1844 37.146 22.174 37.2088 22.1705C37.4735 22.1499 37.6986 22.064 37.8068 21.7993C37.8315 21.7343 37.8739 21.6775 37.9292 21.6353C37.9844 21.5931 38.0504 21.5672 38.1196 21.5605C38.3482 21.5227 38.3877 21.4659 38.4204 21.2305C38.4343 21.1713 38.4545 21.1137 38.4805 21.0587H38.5303C38.5673 21.1384 38.5989 21.2205 38.6249 21.3044C38.6506 21.4006 38.6988 21.4659 38.7967 21.4763C38.883 21.4849 38.9699 21.4849 39.0562 21.4763C39.2057 21.4591 39.3535 21.4299 39.5013 21.4092C39.5563 21.4092 39.5889 21.3989 39.6061 21.3285C39.6233 21.258 39.6921 21.2219 39.7419 21.1721C39.7917 21.1222 39.8622 21.0982 39.8639 21.0002C39.8656 20.9023 40.0203 20.806 40.1045 20.8181C40.1524 20.8309 40.194 20.8608 40.2214 20.9023C40.2498 20.957 40.2723 21.0146 40.2884 21.0741C40.3659 21.0042 40.4229 20.9144 40.4531 20.8145C40.4834 20.7145 40.4859 20.6082 40.4602 20.507C40.4004 20.5241 40.3396 20.5373 40.2781 20.5465C40.192 20.5586 40.1047 20.5586 40.0186 20.5465C39.7728 20.4915 39.735 20.3747 39.8673 20.1719C39.912 20.0997 39.9636 19.9502 39.9412 19.933C39.8502 19.8643 39.7694 19.9519 39.6972 20.0121C39.5335 20.1405 39.4135 20.3164 39.3535 20.5156C39.3072 20.6907 39.2354 20.8581 39.1404 21.0123C39.1009 21.0758 38.9789 21.1016 38.8895 21.1154C38.8551 21.1154 38.8036 21.0432 38.7692 20.9968C38.7353 20.9453 38.7043 20.892 38.6764 20.837L38.6644 20.8765L38.1488 20.904C38.1402 20.8731 38.1316 20.8524 38.1265 20.8301C38.0509 20.4503 38.0182 20.5019 38.3808 20.3575C38.4885 20.2935 38.5858 20.2135 38.6695 20.1203L38.917 19.9038C38.9325 19.892 38.9469 19.8788 38.96 19.8643C39.2074 19.5326 39.5769 19.4776 39.9481 19.4192C40.3193 19.3608 40.6046 19.5068 40.9242 19.591C41.0961 19.6374 41.2559 19.689 41.4535 19.7474C41.2129 19.9382 40.9913 19.7474 40.785 19.7818C40.785 19.7955 40.7713 19.8059 40.773 19.8076C40.8911 19.9366 41.018 20.0571 41.1528 20.1685C41.1775 20.1812 41.2049 20.1881 41.2327 20.1887C41.2605 20.1892 41.2881 20.1834 41.3134 20.1716C41.3386 20.1598 41.3608 20.1424 41.3782 20.1207C41.3957 20.099 41.4079 20.0736 41.414 20.0464C41.4329 19.9726 41.4638 19.9365 41.5429 19.9365C41.593 19.9356 41.6418 19.92 41.683 19.8916C41.7243 19.8632 41.7563 19.8232 41.7749 19.7766C41.8161 19.6976 41.8677 19.6632 41.9467 19.6959C41.933 19.7887 41.976 19.8282 42.067 19.799C42.1004 19.7877 42.1322 19.7721 42.1616 19.7526C42.2688 19.6861 42.3953 19.6576 42.5207 19.6718C42.6934 19.6618 42.8636 19.6265 43.026 19.567C43.0788 19.5425 43.1378 19.535 43.1951 19.5455C43.2523 19.556 43.3049 19.5839 43.3456 19.6254C44.077 20.3851 44.6983 21.2435 45.1913 22.1757C45.7772 23.2831 46.1712 24.4819 46.3565 25.721C46.3622 25.7389 46.3662 25.7573 46.3685 25.776Z" fill="white"/>
<path d="M28.7487 21.4298L28.6662 21.9041C28.7232 21.9068 28.7799 21.8943 28.8306 21.8681C28.8813 21.8419 28.9242 21.8027 28.9549 21.7546C29.1491 21.4797 29.3502 21.2116 29.5495 20.94C29.5805 20.8988 29.6114 20.8576 29.6389 20.8129C29.6924 20.7054 29.7818 20.6199 29.8916 20.5713C30.0014 20.5227 30.1248 20.5139 30.2404 20.5465C30.3727 20.5671 30.4672 20.5963 30.4569 20.7579C30.4569 20.7802 30.517 20.8249 30.5531 20.8283C30.7147 20.8472 30.7954 20.8283 31.0687 20.708C31.0793 20.7322 31.0868 20.7576 31.091 20.7837C31.0953 20.819 31.0953 20.8548 31.091 20.8902C31.0564 21.0246 31.0722 21.1671 31.1355 21.2906C31.1989 21.4141 31.3053 21.5101 31.4347 21.5604L31.4863 21.5879C31.2915 21.7764 31.0352 21.888 30.7645 21.9024C30.5776 21.9012 30.3937 21.9498 30.2318 22.0433C30.0962 22.1071 29.956 22.1605 29.8125 22.2032C29.7622 22.2339 29.7165 22.2715 29.6767 22.3149L29.6939 22.3509L30.2283 22.3028C30.2077 22.4334 30.2283 22.5108 30.3658 22.5228C30.4174 22.5228 30.4638 22.5967 30.5291 22.65C30.2971 22.6947 30.1854 22.9473 29.8898 22.8871L30.1184 22.674C30.0101 22.5555 29.9843 22.5451 29.84 22.6345C29.6956 22.7239 29.5719 22.8304 29.4378 22.9301C29.4034 22.9559 29.3708 22.9971 29.333 23.004C29.0941 23.0469 28.979 23.2429 28.8277 23.3958C28.7946 23.443 28.752 23.4827 28.7025 23.5123C28.6531 23.5419 28.598 23.5607 28.5408 23.5677C28.4939 23.5674 28.4485 23.5845 28.4136 23.6158C28.3726 23.6524 28.3458 23.7023 28.338 23.7567C28.3465 23.8558 28.3244 23.9551 28.2746 24.0412C28.2248 24.1273 28.1497 24.1959 28.0596 24.2379C27.8961 24.3267 27.7403 24.429 27.5939 24.5438C27.5313 24.6072 27.4893 24.6881 27.4734 24.7757C27.4574 24.8634 27.4683 24.9538 27.5045 25.0353C27.5321 25.0926 27.5464 25.1555 27.5464 25.2191C27.5464 25.2828 27.5321 25.3457 27.5045 25.403C27.4942 25.4322 27.4237 25.4563 27.3808 25.458C27.3378 25.4597 27.3086 25.4133 27.3 25.3824C27.2622 25.2346 27.2381 25.0817 27.2003 24.9339C27.18 24.883 27.1541 24.8346 27.123 24.7895L27.0938 24.8015V24.9734L27.0663 24.994C27.029 24.9502 26.9894 24.9083 26.9477 24.8686C26.8925 24.8144 26.83 24.7681 26.7621 24.7311C26.7278 24.7142 26.6883 24.7114 26.652 24.7233C26.6157 24.7352 26.5855 24.7608 26.5679 24.7947C26.4957 24.8909 26.4115 24.9786 26.3376 25.0628C26.2766 24.989 26.2118 24.9184 26.1434 24.8514C26.1283 24.8396 26.1108 24.8312 26.0921 24.8267C26.0734 24.8223 26.054 24.8219 26.0352 24.8256C25.8923 24.8466 25.7628 24.9209 25.6726 25.0335C25.5761 25.1492 25.4691 25.2556 25.3529 25.3515C25.2998 25.389 25.2625 25.445 25.2482 25.5085C25.2339 25.5719 25.2436 25.6385 25.2756 25.6952C25.2924 25.7431 25.2972 25.7945 25.2893 25.8447C25.2622 25.9828 25.2885 26.1261 25.3628 26.2457C25.4371 26.3652 25.5539 26.4522 25.6897 26.4891C25.7614 26.5136 25.8395 26.5119 25.91 26.4842C25.9805 26.4565 26.0388 26.4046 26.0747 26.3379C26.1056 26.2743 26.1262 26.2056 26.1555 26.1403C26.1613 26.1211 26.1711 26.1034 26.1843 26.0884C26.1974 26.0733 26.2136 26.0611 26.2318 26.0527C26.2499 26.0443 26.2696 26.0397 26.2897 26.0394C26.3097 26.0391 26.3295 26.043 26.3479 26.0509C26.3714 26.0749 26.3891 26.1039 26.3995 26.1358C26.4099 26.1677 26.4129 26.2016 26.4081 26.2348C26.3826 26.3468 26.3481 26.4566 26.305 26.563C26.2672 26.6833 26.2964 26.7349 26.4235 26.7658C26.5167 26.7847 26.6108 26.7985 26.7054 26.8071C26.7312 26.8065 26.7567 26.8118 26.7802 26.8225C26.8036 26.8332 26.8244 26.849 26.8409 26.8689C26.8574 26.8887 26.8692 26.9119 26.8755 26.9369C26.8818 26.9619 26.8824 26.988 26.8772 27.0133C26.8658 27.1519 26.8698 27.2914 26.8893 27.4292C26.9112 27.5111 26.9551 27.5854 27.0164 27.644C27.0378 27.658 27.0623 27.6666 27.0878 27.669C27.1132 27.6714 27.1389 27.6675 27.1625 27.6577C27.2038 27.6299 27.2513 27.6128 27.3008 27.608C27.3503 27.6032 27.4002 27.6109 27.4461 27.6302C27.4838 27.6429 27.5222 27.6533 27.5612 27.6612C27.7331 27.7024 27.776 27.6732 27.8894 27.5477C27.9671 27.4781 28.0545 27.4202 28.1489 27.3759C28.1635 27.3724 28.1786 27.3726 28.193 27.3766C28.2074 27.3805 28.2206 27.3879 28.2314 27.3982C28.2389 27.4104 28.2428 27.4244 28.2428 27.4386C28.2428 27.4529 28.2389 27.4668 28.2314 27.479C28.1386 27.5632 28.1902 27.6044 28.2727 27.6388L28.472 27.723C28.3448 27.5151 28.515 27.4429 28.5906 27.3192C28.6216 27.3372 28.6509 27.3579 28.6782 27.381C28.7337 27.4413 28.8021 27.4881 28.8783 27.5178C28.9546 27.5476 29.0366 27.5596 29.1182 27.5529C29.345 27.5502 29.5637 27.6373 29.7265 27.7952C29.9494 27.9881 30.217 28.1223 30.505 28.1853C30.5676 28.195 30.6272 28.2188 30.6792 28.2548C30.7313 28.2908 30.7746 28.3381 30.8058 28.3932C30.859 28.4826 30.9261 28.5651 30.9776 28.6493C31.0016 28.6708 31.0191 28.6986 31.0281 28.7295C31.0371 28.7604 31.0372 28.7933 31.0284 28.8243C31.0197 28.8553 31.0023 28.8832 30.9785 28.9048C30.9546 28.9264 30.9251 28.9409 30.8934 28.9466L30.7594 29.0119C30.7954 29.0806 30.835 29.1013 30.9037 29.0635C30.9505 29.0343 31.0024 29.0145 31.0567 29.005C31.0983 29.0097 31.1371 29.0285 31.1666 29.0583C31.1666 29.0583 31.1495 29.1081 31.1426 29.1356C31.1357 29.1631 31.122 29.1992 31.1288 29.2044C31.1535 29.2198 31.1823 29.227 31.2113 29.225C31.235 29.2213 31.2568 29.2098 31.2732 29.1924C31.2963 29.1652 31.325 29.1434 31.3573 29.1284C31.3897 29.1134 31.4249 29.1057 31.4605 29.1057C31.4962 29.1057 31.5314 29.1134 31.5637 29.1284C31.5961 29.1434 31.6248 29.1652 31.6478 29.1924C31.6633 29.2044 31.6925 29.2147 31.6925 29.2267C31.7114 29.4226 31.8455 29.3436 31.9279 29.3109C31.9692 29.295 32.0135 29.2882 32.0577 29.2909C32.1018 29.2935 32.1449 29.3057 32.184 29.3264C32.3902 29.414 32.605 29.4862 32.8181 29.5601C32.8504 29.5683 32.8792 29.5869 32.8999 29.613C32.9207 29.639 32.9324 29.6711 32.9333 29.7045C32.9564 29.8702 32.9423 30.039 32.8921 30.1986C32.8419 30.3582 32.7567 30.5047 32.6428 30.6273C32.6263 30.65 32.6045 30.6683 32.5793 30.6806C32.4847 30.7201 32.4762 30.7974 32.4727 30.8851C32.4745 31.1037 32.4642 31.3223 32.4418 31.5398C32.4148 31.6755 32.3679 31.8063 32.3026 31.9282C32.2562 32.0279 32.2098 32.131 32.05 32.1001C31.9795 32.0898 31.8884 32.1585 31.818 32.2066C31.6927 32.2767 31.5772 32.3627 31.4743 32.4627C31.42 32.5522 31.3838 32.6514 31.3677 32.7548C31.3279 32.9441 31.2763 33.1306 31.213 33.3133C31.1666 33.4182 31.0412 33.4852 30.9621 33.578C30.9024 33.6592 30.8146 33.7153 30.7158 33.7354C30.617 33.7554 30.5143 33.7379 30.4277 33.6863C30.383 33.8152 30.4689 33.8959 30.5188 33.9836C30.5995 34.1228 30.5978 34.1211 30.4672 34.2156C30.3366 34.3101 30.2386 34.4012 30.1235 34.4957C30.0835 34.5342 30.0544 34.5827 30.0393 34.6361C30.0242 34.6896 30.0236 34.7461 30.0376 34.7999C30.037 34.8957 30.0237 34.9911 29.9981 35.0834C29.9854 35.1317 29.9785 35.1813 29.9774 35.2312C29.9895 35.3309 30.0204 35.4254 30.0324 35.5251C30.053 35.6883 30.0651 35.8533 30.0805 36.0183C30.0805 36.0802 30.1046 36.1214 30.1802 36.1248C30.1981 36.1297 30.2147 36.1383 30.229 36.1502C30.2432 36.1621 30.2547 36.1769 30.2627 36.1936C30.3074 36.2864 30.3435 36.3826 30.383 36.4737C30.3575 36.4936 30.3284 36.5082 30.2972 36.5167C30.266 36.5251 30.2334 36.5272 30.2014 36.5229C30.1694 36.5186 30.1385 36.5079 30.1107 36.4915C30.0828 36.4751 30.0586 36.4532 30.0393 36.4273C29.9802 36.3139 29.8819 36.2259 29.7626 36.1798C29.5696 36.0955 29.4142 35.9432 29.3261 35.7519C29.2213 35.544 29.1044 35.3635 29.1371 35.1092C29.1555 35.03 29.1443 34.9469 29.1057 34.8753C29.0671 34.8038 29.0037 34.7489 28.9274 34.7208C28.8999 34.7122 28.8759 34.6504 28.8724 34.6108C28.8535 34.4493 28.8449 34.2877 28.8295 34.1262C28.7985 33.7825 28.7556 33.4388 28.7349 33.0951C28.7212 32.839 28.7349 32.5795 28.7349 32.3218C28.7349 32.2066 28.7349 32.0915 28.7349 31.9781C28.7228 31.829 28.6662 31.6871 28.5725 31.5707C28.4787 31.4542 28.3521 31.3686 28.2091 31.325C28.1299 31.3112 28.0587 31.2683 28.0094 31.2047C27.9602 31.1411 27.9364 31.0615 27.9427 30.9813C27.9456 30.9106 27.928 30.8405 27.892 30.7796C27.856 30.7186 27.8032 30.6693 27.7399 30.6376C27.5686 30.5418 27.4384 30.3865 27.3739 30.2011C27.3519 30.1456 27.3179 30.0957 27.2742 30.055C27.2283 30.0119 27.1945 29.9574 27.1764 29.8971C27.1583 29.8367 27.1565 29.7726 27.1711 29.7113C27.1732 29.6273 27.1669 29.5432 27.1522 29.4604C27.1404 29.404 27.1358 29.3462 27.1384 29.2886C27.1601 29.124 27.2189 28.9666 27.3103 28.828C27.412 28.679 27.4962 28.5187 27.5612 28.3503C27.597 28.2599 27.6017 28.1603 27.5746 28.0669C27.5476 27.9736 27.4902 27.8919 27.4117 27.8347C27.3855 27.8204 27.3565 27.8122 27.3267 27.8107C27.297 27.8093 27.2673 27.8145 27.2398 27.8261C27.1852 27.8595 27.1218 27.8753 27.0579 27.8717C26.994 27.868 26.9328 27.8449 26.8824 27.8055C26.6723 27.6701 26.4997 27.4839 26.3806 27.2642C26.3601 27.2315 26.3292 27.2067 26.2929 27.1937C26.241 27.1746 26.1866 27.163 26.1314 27.1593C26.0578 27.1545 25.9859 27.1352 25.9198 27.1025C25.8538 27.0697 25.7948 27.0242 25.7465 26.9686C25.6877 26.906 25.6152 26.8579 25.5347 26.8281C25.4541 26.7983 25.3678 26.7876 25.2825 26.7967C25.2592 26.8011 25.2353 26.8011 25.212 26.7967C24.8683 26.7073 24.5557 26.5255 24.3081 26.2709C24.2713 26.2224 24.2453 26.1668 24.2316 26.1075C24.218 26.0483 24.2171 25.9868 24.229 25.9272C24.4601 24.1721 25.1083 22.498 26.1194 21.0449C26.3496 20.7166 26.6109 20.4107 26.8566 20.0945C26.8944 20.0464 26.9339 20.0241 26.9872 20.0636C27.024 20.0857 27.0649 20.1002 27.1074 20.1061C27.15 20.112 27.1933 20.1093 27.2347 20.098C27.4358 20.0722 27.6437 20.0825 27.8396 20.0413C28.0787 19.9904 28.3123 19.9167 28.5373 19.8213C28.6207 19.7744 28.6921 19.7089 28.7461 19.6299C28.8 19.551 28.835 19.4606 28.8484 19.3659C28.8638 19.3126 28.881 19.2593 28.8982 19.2061C28.9566 19.0119 28.9566 19.0136 29.1577 19.0583L29.5684 19.1511C29.4533 19.1906 29.3347 19.2301 29.2247 19.2765C29.156 19.3023 29.1474 19.347 29.1955 19.4054C29.2763 19.5034 29.3519 19.6065 29.4361 19.6993C29.4584 19.7251 29.5186 19.7474 29.5409 19.7336C29.7128 19.634 29.8846 19.6752 30.0565 19.6632C30.0121 19.742 29.9584 19.8153 29.8967 19.8814C29.8328 19.9304 29.7578 19.9629 29.6784 19.976C29.4739 20.0172 29.266 20.0447 29.0597 20.0774C29.05 20.1472 29.0148 20.2109 28.9608 20.2563C28.9069 20.3017 28.8381 20.3255 28.7676 20.3231C28.5007 20.3657 28.2505 20.4804 28.0441 20.6548C27.9701 20.6953 27.9136 20.7617 27.8854 20.8413C27.8572 20.9208 27.8592 21.008 27.8912 21.0861C27.9118 21.1514 27.9324 21.2322 28.0372 21.1806C28.0544 21.1806 28.0888 21.1909 28.1128 21.203C28.2108 21.2528 28.307 21.3095 28.4067 21.3594C28.5064 21.4092 28.5786 21.4642 28.68 21.4264C28.6909 21.4216 28.7028 21.4194 28.7147 21.42C28.7267 21.4206 28.7383 21.424 28.7487 21.4298Z" fill="white"/>
<path d="M31.9038 18.67C32.1564 18.6287 32.397 18.5961 32.6342 18.5497C32.7372 18.5224 32.8377 18.4867 32.9349 18.4431C33.1885 18.3201 33.4702 18.2667 33.7512 18.2884C34.0141 18.3262 34.2805 18.3451 34.5452 18.3675C34.594 18.3773 34.6446 18.3742 34.6919 18.3585C34.7392 18.3429 34.7816 18.3151 34.815 18.2781C34.8442 18.2437 34.9164 18.2386 34.9696 18.2282C35.1776 18.1939 35.3838 18.1561 35.5935 18.1354C35.7031 18.126 35.8135 18.1312 35.9217 18.1509C36.176 18.1904 36.4372 18.2403 36.683 18.2867C36.7239 18.2915 36.7624 18.3089 36.793 18.3365C36.6882 18.3365 36.5816 18.3486 36.4768 18.3606C36.4105 18.3652 36.3454 18.3809 36.2843 18.407C36.1863 18.4551 36.1004 18.5067 36.0953 18.6476C36.0939 18.7156 36.0697 18.7811 36.0268 18.8338C35.9838 18.8864 35.9244 18.9231 35.8581 18.9381C35.72 18.9883 35.5847 19.0457 35.4525 19.11C35.3838 19.1409 35.3838 19.1805 35.4525 19.2183C35.5488 19.2733 35.645 19.3248 35.7481 19.3816C35.5883 19.4469 35.5883 19.4469 35.2515 19.2922L35.3941 19.5276C35.1793 19.5844 34.9559 19.6497 34.7308 19.6995C34.5229 19.7379 34.3287 19.8297 34.1671 19.9659C34.005 20.0801 33.8135 20.1452 33.6154 20.1533C33.5106 20.1722 33.4247 20.1928 33.4264 20.3252C33.4264 20.3733 33.3766 20.4317 33.337 20.4713C33.285 20.5227 33.2273 20.5683 33.1652 20.607C33.1121 20.6456 33.0493 20.6686 32.9839 20.6736C32.9185 20.6785 32.853 20.6652 32.7947 20.6351C32.7364 20.6049 32.6876 20.5592 32.6538 20.503C32.62 20.4467 32.6025 20.3822 32.6032 20.3166C32.5891 20.2465 32.585 20.1747 32.5912 20.1034C32.6112 20.027 32.6401 19.9532 32.6771 19.8834C32.6992 19.8506 32.7258 19.8211 32.7562 19.7958C33.0501 19.4795 32.9848 19.1461 32.6067 18.9364C32.4493 18.8425 32.2734 18.7839 32.0911 18.7645C32.0229 18.7462 31.9591 18.714 31.9038 18.67Z" fill="white"/>
<path d="M29.9602 18.9518C30.0461 18.804 30.1406 18.7593 30.2901 18.8281C30.3619 18.8654 30.4405 18.8877 30.5211 18.8936C30.6018 18.8995 30.6828 18.8889 30.7593 18.8624L30.7833 18.8882C30.761 18.9191 30.7438 18.969 30.7146 18.981C30.6424 19.0102 30.5616 19.0154 30.4877 19.0412C30.4708 19.0485 30.4556 19.0594 30.4432 19.073C30.4307 19.0866 30.4213 19.1027 30.4156 19.1202C30.4156 19.1392 30.4499 19.1838 30.4774 19.1907C30.773 19.2784 31.0703 19.3626 31.3659 19.4434C31.3797 19.4505 31.3917 19.4607 31.401 19.4733C31.4102 19.4858 31.4164 19.5003 31.4192 19.5156C31.4182 19.5548 31.4112 19.5936 31.3986 19.6307C31.3522 19.8421 31.4106 19.9195 31.6271 19.9229C31.6293 19.9596 31.618 19.9959 31.5951 20.0248C31.5723 20.0536 31.5396 20.0731 31.5034 20.0793C31.3625 20.1189 31.2233 20.1601 31.0841 20.2065C31.0205 20.2271 30.9517 20.2495 30.9724 20.344C30.9724 20.3612 30.9552 20.387 30.9397 20.4025C30.879 20.4437 30.8068 20.4644 30.7335 20.4616C30.6602 20.4588 30.5898 20.4327 30.5324 20.387C30.5071 20.3596 30.4896 20.3259 30.4819 20.2893C30.4743 20.2528 30.4766 20.2149 30.4888 20.1796C30.501 20.1443 30.5225 20.113 30.551 20.089C30.5796 20.065 30.6142 20.0492 30.651 20.0432C30.7352 20.0192 30.8228 20.014 30.9071 19.9917C30.9466 19.9817 30.9814 19.9579 31.005 19.9246C31.005 19.9057 30.9758 19.8559 30.95 19.8301C30.7324 19.6335 30.451 19.5224 30.1578 19.5173C29.9962 19.507 29.8347 19.4898 29.6732 19.4726C29.6044 19.4726 29.5168 19.4726 29.5116 19.3678C29.5077 19.3459 29.5087 19.3235 29.5147 19.3022C29.5207 19.2808 29.5315 19.2611 29.5462 19.2445C29.561 19.228 29.5793 19.215 29.5998 19.2066C29.6203 19.1981 29.6424 19.1945 29.6646 19.1959C29.7717 19.1911 29.8784 19.1802 29.9842 19.1632C30.0306 19.1632 30.0994 19.122 30.1062 19.0893C30.1217 19.0137 30.0736 18.9638 29.9894 18.9621C29.9825 18.9673 29.9756 18.9604 29.9602 18.9518Z" fill="white"/>
<path d="M43.6362 30.5535C43.7101 30.8078 43.7771 31.0485 43.6705 31.3115C43.5829 31.5315 43.5296 31.7652 43.4575 31.9904C43.4313 32.0568 43.3991 32.1206 43.3612 32.1812C43.2495 32.3909 43.2495 32.3909 43.0175 32.353C42.9743 32.3385 42.9345 32.3156 42.9002 32.2855C42.866 32.2555 42.838 32.2189 42.8181 32.178C42.7981 32.137 42.7864 32.0925 42.7838 32.047C42.7811 32.0016 42.7876 31.956 42.8027 31.913C42.86 31.8381 42.9085 31.7568 42.9471 31.6707C42.9685 31.5768 42.9685 31.4793 42.9471 31.3854C42.9433 31.3182 42.9607 31.2516 42.9967 31.1949C43.0328 31.1382 43.0857 31.0942 43.1481 31.0691C43.1817 31.0634 43.2128 31.0478 43.2375 31.0244C43.3509 30.911 43.4626 30.7958 43.5709 30.6807C43.5989 30.6418 43.6209 30.5989 43.6362 30.5535Z" fill="white"/>
<path d="M32.8008 18.1509C32.6022 18.3106 32.3652 18.4155 32.1134 18.4551C31.7652 18.5136 31.4329 18.6435 31.1373 18.8367C31.0411 18.8968 30.9466 18.9484 30.8744 18.7989C30.8624 18.7714 30.8091 18.7576 30.7713 18.7525C30.6796 18.7428 30.5889 18.7262 30.4998 18.7026C30.5262 18.678 30.5564 18.6577 30.5891 18.6425C30.663 18.6184 30.7421 18.6064 30.8194 18.584C30.8967 18.5617 31.0016 18.5462 31.0359 18.431C31.0462 18.4072 31.0618 18.386 31.0814 18.369C31.101 18.3521 31.1243 18.3398 31.1494 18.3331C31.304 18.2987 31.4638 18.2764 31.6219 18.2523C31.7188 18.2483 31.8149 18.2345 31.9089 18.211C32.0834 18.1435 32.2706 18.1153 32.4571 18.1285C32.5139 18.1285 32.574 18.1148 32.629 18.1131C32.684 18.1113 32.7407 18.1131 32.8008 18.1131V18.1509Z" fill="white"/>
<path d="M37.1849 21.4901C37.1179 21.3887 37.0216 21.3388 36.9529 21.3852C36.7553 21.5193 36.7398 21.5571 36.8326 21.6998L36.4408 21.8476C36.4133 21.7101 36.5714 21.588 36.4408 21.4643C36.4671 21.4182 36.5055 21.3803 36.5519 21.3545C36.5982 21.3288 36.6507 21.3162 36.7037 21.3182H36.8584C36.9409 21.3182 37.0045 21.289 36.9924 21.1841C36.988 21.1519 36.9946 21.1192 37.0113 21.0913C37.0423 21.0449 37.0784 20.9813 37.1248 20.971C37.1712 20.9607 37.221 21.0105 37.2863 21.0415C37.1694 21.1635 37.2176 21.2305 37.3241 21.2838C37.349 21.296 37.3699 21.3151 37.3842 21.3388C37.412 21.4209 37.4495 21.4994 37.4959 21.5726C37.5671 21.6299 37.6465 21.6763 37.7314 21.7101C37.6616 21.7718 37.5882 21.8292 37.5114 21.8819C37.4373 21.9278 37.3568 21.9626 37.2725 21.9851C37.2046 21.9937 37.1359 21.9937 37.068 21.9851V21.9455L37.2107 21.8544C37.1608 21.7943 37.0835 21.741 37.0784 21.6826C37.0732 21.6241 37.1454 21.5605 37.1849 21.4901Z" fill="white"/>
<path d="M35.4114 20.1272C35.4612 20.1066 35.511 20.0808 35.5626 20.0654C35.7207 20.0224 35.8805 19.9811 36.0386 19.9416C36.116 19.9227 36.2105 19.9227 36.2311 20.0069C36.2314 20.0357 36.2249 20.0641 36.2121 20.0898C36.1992 20.1155 36.1804 20.1378 36.1572 20.1547C36.0604 20.2145 35.9579 20.2645 35.8513 20.3043C35.8051 20.3281 35.752 20.3347 35.7013 20.3231C35.6507 20.3114 35.6058 20.2822 35.5746 20.2407C35.542 20.2011 35.475 20.1908 35.4217 20.1668L35.4114 20.1272Z" fill="white"/>
<path d="M30.8726 22.3476C30.9969 22.1672 31.174 22.0298 31.3795 21.954L31.2781 22.0434C31.3228 22.0657 31.3675 22.0726 31.3898 22.0984C31.4122 22.1241 31.5067 22.2204 31.4947 22.2599C31.4848 22.3002 31.4599 22.3351 31.425 22.3575C31.3902 22.3799 31.348 22.388 31.3073 22.3802C31.1681 22.3579 31.0272 22.3579 30.8726 22.3476Z" fill="white"/>
<path d="M40.6404 34.366L41.3445 33.8129L51.6321 46.9096L50.928 47.4627L40.6404 34.366Z" fill="#68E1FD"/>
<path d="M41.1702 36.8727L41.153 37.0033C39.7234 37.8623 38.1219 38.3951 36.4627 38.5637C34.8034 38.7324 33.1274 38.5327 31.5543 37.979C29.9811 37.4252 28.5496 36.5311 27.3618 35.3603C26.174 34.1895 25.2594 32.771 24.683 31.206C24.1067 29.6409 23.8829 27.968 24.0276 26.3065C24.1724 24.645 24.682 23.036 25.5203 21.5942C26.3586 20.1524 27.5048 18.9134 28.8771 17.9656C30.2494 17.0179 31.814 16.3847 33.4592 16.1113C32.6565 16.7711 31.9208 17.5085 31.263 18.3127C31.1358 18.4708 31.0035 18.6341 30.878 18.8042C30.7766 18.9383 30.6752 19.0758 30.5773 19.2184C30.5051 19.3232 30.4312 19.4332 30.359 19.5449C30.092 19.9539 29.8509 20.3792 29.6372 20.8183C29.2279 21.6431 28.9386 22.5221 28.778 23.4288C28.5447 24.8106 28.6629 26.229 29.1217 27.5532C29.3509 28.2258 29.6486 28.8731 30.0102 29.4848C30.5592 30.4254 31.1919 31.3146 31.9005 32.1416C36.1762 37.1219 41.1702 36.8727 41.1702 36.8727Z" fill="url(#paint1_linear_263_1289)"/>
<path d="M61.4605 49.4415L49.3983 49.3453C49.2029 49.3453 49.0134 49.2788 48.8609 49.1566C48.7085 49.0345 48.6022 48.864 48.5596 48.6734L46.3685 39.1889C46.337 39.0603 46.3355 38.9262 46.3643 38.797C46.3931 38.6678 46.4514 38.5471 46.5346 38.4441C46.6177 38.3411 46.7236 38.2588 46.8438 38.2034C46.9641 38.1481 47.0955 38.1213 47.2278 38.1251L59.2918 38.2214C59.4885 38.2229 59.679 38.2908 59.8324 38.414C59.9858 38.5371 60.0932 38.7084 60.1373 38.9002L62.3249 48.3709C62.3553 48.5001 62.3558 48.6346 62.3263 48.764C62.2968 48.8935 62.2381 49.0144 62.1547 49.1177C62.0713 49.221 61.9654 49.3039 61.8451 49.36C61.7248 49.4161 61.5932 49.444 61.4605 49.4415Z" fill="#68E1FD"/>
<path d="M60.7441 48.4241L49.8625 48.3365C49.6895 48.3371 49.5211 48.2803 49.3839 48.1748C49.2467 48.0694 49.1485 47.9213 49.1046 47.7539L47.1129 39.5291C47.0879 39.416 47.0891 39.2987 47.1164 39.1861C47.1438 39.0736 47.1966 38.9688 47.2708 38.8799C47.345 38.791 47.4386 38.7202 47.5443 38.673C47.6501 38.6259 47.7653 38.6036 47.8811 38.6079L58.7696 38.6956C58.9425 38.6944 59.1109 38.7511 59.248 38.8567C59.385 38.9622 59.4828 39.1106 59.5257 39.2782L61.5054 47.5013C61.5299 47.6138 61.5285 47.7304 61.5014 47.8424C61.4742 47.9543 61.4221 48.0586 61.3488 48.1475C61.2755 48.2363 61.183 48.3074 61.0783 48.3553C60.9735 48.4032 60.8593 48.4267 60.7441 48.4241Z" fill="url(#paint2_linear_263_1289)"/>
<path d="M49.5622 48.9796L65.2998 49.1059C65.4407 49.1071 65.5753 49.1641 65.6741 49.2645C65.7729 49.3649 65.8277 49.5004 65.8266 49.6413C65.8254 49.7821 65.7684 49.9168 65.668 50.0156C65.5677 50.1144 65.4321 50.1692 65.2913 50.1681L49.5537 50.0418C49.4142 50.0406 49.2809 49.9842 49.1831 49.8847C49.0852 49.7853 49.0309 49.6511 49.032 49.5116L49.0322 49.4979C49.0333 49.3584 49.0897 49.225 49.1892 49.1272C49.2886 49.0294 49.4228 48.975 49.5622 48.9761L49.5622 48.9796Z" fill="#68E1FD"/>
<path d="M69.0069 49.2768L56.3552 49.1503C56.0904 49.1477 55.8736 49.3602 55.8709 49.625L55.8699 49.7299C55.8672 49.9947 56.0798 50.2116 56.3446 50.2142L68.9963 50.3407C69.2611 50.3434 69.4779 50.1308 69.4805 49.866L69.4816 49.7612C69.4842 49.4963 69.2717 49.2795 69.0069 49.2768Z" fill="#68E1FD"/>
<path d="M69.0069 49.2768L56.3552 49.1503C56.0904 49.1477 55.8736 49.3602 55.8709 49.625L55.8699 49.7299C55.8672 49.9947 56.0798 50.2116 56.3446 50.2142L68.9963 50.3407C69.2611 50.3434 69.4779 50.1308 69.4805 49.866L69.4816 49.7612C69.4842 49.4963 69.2717 49.2795 69.0069 49.2768Z" fill="url(#paint3_linear_263_1289)"/>
<path d="M54.3306 41.293L55.1194 44.8027H55.1314L55.8807 43.7835L55.2534 43.9244H55.2448L54.6433 41.2483L54.3306 41.293Z" fill="white"/>
<path d="M54.8221 44.8828L54.0333 41.3748H54.023L53.272 42.3957L53.9009 42.2548C53.9023 42.254 53.9037 42.2536 53.9052 42.2536C53.9068 42.2536 53.9082 42.254 53.9095 42.2548L54.511 44.9326L54.8221 44.8828Z" fill="white"/>
<path d="M39.2402 17.3057L45.2035 9.4126Z" fill="url(#paint4_linear_263_1289)"/>
<path d="M63.9026 18.5969C63.607 19.7295 62.2649 19.5216 62.2649 19.5216C62.2649 19.5216 54.4748 19.6677 54.3288 19.5216C54.2102 19.4012 54.2875 18.9423 54.3167 18.779C54.3167 18.743 54.3288 18.7223 54.3288 18.7223H56.5542C56.5542 18.7223 57.6043 18.1758 55.8823 15.7007C54.437 13.6175 59.895 13.5247 61.6771 13.5471C62.0208 13.5471 62.2236 13.5591 62.2236 13.5591C62.2236 13.5591 64.1948 17.4625 63.9026 18.5969Z" fill="#68E1FD"/>
<path d="M62.9782 17.7993C62.6861 18.9337 61.3405 18.7223 61.3405 18.7223C61.3405 18.7223 56.4049 18.8169 54.3169 18.779C54.3169 18.743 54.3289 18.7223 54.3289 18.7223H56.5544C56.5544 18.7223 57.6044 18.1758 55.8825 15.7007C54.4372 13.6175 59.8952 13.5247 61.6773 13.5471C62.2358 14.7451 63.1896 16.9864 62.9782 17.7993Z" fill="#68E1FD"/>
<path d="M63.2961 17.9661C63.004 19.1005 61.3405 18.7223 61.3405 18.7223C61.3405 18.7223 56.4049 18.8169 54.3169 18.779C54.3169 18.743 54.3289 18.7223 54.3289 18.7223H56.5544C56.5544 18.7223 57.6044 18.1758 55.8825 15.7007C54.4372 13.6175 59.8952 13.5247 61.6773 13.5471C62.2358 14.7451 63.5092 17.1531 63.2961 17.9661Z" fill="url(#paint5_linear_263_1289)"/>
<path d="M66.6317 2.34778H49.9896C49.125 2.34778 48.4241 3.04871 48.4241 3.91334V14.0509C48.4241 14.9155 49.125 15.6164 49.9896 15.6164H66.6317C67.4964 15.6164 68.1973 14.9155 68.1973 14.0509V3.91334C68.1973 3.04871 67.4964 2.34778 66.6317 2.34778Z" fill="#68E1FD"/>
<path d="M66.6317 2.34778H49.9896C49.125 2.34778 48.4241 3.04871 48.4241 3.91334V14.0509C48.4241 14.9155 49.125 15.6164 49.9896 15.6164H66.6317C67.4964 15.6164 68.1973 14.9155 68.1973 14.0509V3.91334C68.1973 3.04871 67.4964 2.34778 66.6317 2.34778Z" fill="url(#paint6_linear_263_1289)"/>
<path d="M66.2123 2.34778H49.5702C48.7056 2.34778 48.0046 3.04871 48.0046 3.91334V14.0509C48.0046 14.9155 48.7056 15.6164 49.5702 15.6164H66.2123C67.0769 15.6164 67.7779 14.9155 67.7779 14.0509V3.91334C67.7779 3.04871 67.0769 2.34778 66.2123 2.34778Z" fill="#68E1FD"/>
<path d="M66.2123 2.34778H49.5702C48.7056 2.34778 48.0046 3.04871 48.0046 3.91334V14.0509C48.0046 14.9155 48.7056 15.6164 49.5702 15.6164H66.2123C67.0769 15.6164 67.7779 14.9155 67.7779 14.0509V3.91334C67.7779 3.04871 67.0769 2.34778 66.2123 2.34778Z" fill="url(#paint7_linear_263_1289)"/>
<path d="M67.7642 12.7322L67.7762 14.0505C67.7762 14.4658 67.6113 14.864 67.3177 15.1577C67.0241 15.4513 66.6259 15.6163 66.2107 15.6163H49.5686C49.1534 15.6163 48.7551 15.4513 48.4615 15.1577C48.1679 14.864 48.003 14.4658 48.003 14.0505L47.991 12.7322H67.7642Z" fill="#68E1FD"/>
<path d="M54.3289 18.7821H62.0897V19.5195H54.3289V18.7821Z" fill="url(#paint8_linear_263_1289)"/>
<path d="M63.296 17.9651L63.3699 19.2886C63.1833 19.4119 62.9736 19.4961 62.7536 19.536C62.5335 19.5759 62.3076 19.5706 62.0896 19.5206V18.7815C62.0896 18.7815 63.1912 19.0995 63.296 17.9651Z" fill="url(#paint9_linear_263_1289)"/>
<path opacity="0.18" d="M56.6556 5.53916C56.0407 5.54428 55.4412 5.73168 54.9328 6.07764C54.4244 6.42361 54.03 6.9126 53.7994 7.48278C53.5689 8.05295 53.5127 8.6787 53.6378 9.28086C53.7629 9.88302 54.0637 10.4345 54.5022 10.8657C54.9407 11.2968 55.4973 11.5882 56.1014 11.703C56.7055 11.8178 57.3301 11.7508 57.8961 11.5105C58.4622 11.2702 58.9443 10.8674 59.2814 10.3531C59.6186 9.83873 59.7956 9.23594 59.7902 8.62094C59.7825 7.79674 59.4481 7.00929 58.8604 6.43148C58.2727 5.85368 57.4797 5.53275 56.6556 5.53916ZM56.7072 11.2283C56.2068 11.2331 55.7163 11.0893 55.2977 10.8152C54.879 10.5411 54.5511 10.1489 54.3553 9.68836C54.1595 9.2278 54.1047 8.71951 54.1977 8.22778C54.2908 7.73605 54.5276 7.28298 54.8782 6.92587C55.2287 6.56876 55.6773 6.32365 56.1672 6.22155C56.657 6.11946 57.1662 6.16495 57.6302 6.35229C58.0942 6.53963 58.4922 6.86039 58.7739 7.274C59.0556 7.68762 59.2084 8.1755 59.2128 8.67594C59.2178 9.3464 58.957 9.99151 58.4873 10.4699C58.0177 10.9484 57.3775 11.2211 56.7072 11.2283Z" fill="white"/>
<path d="M56.9238 7.23804L56.9496 10.0809L57.704 9.41402L57.1919 9.41746L57.1713 7.25179L56.9238 7.23804Z" fill="white"/>
<path d="M56.7072 10.0846L56.6814 7.23999L55.927 7.9086L56.4391 7.90344L56.458 10.0691L56.7072 10.0846Z" fill="white"/>
<defs>
<linearGradient id="paint0_linear_263_1289" x1="9.73085" y1="26.0751" x2="10.687" y2="35.3476" gradientUnits="userSpaceOnUse">
<stop stop-opacity="0"/>
<stop offset="0.99"/>
</linearGradient>
<linearGradient id="paint1_linear_263_1289" x1="19.0426" y1="12.8754" x2="0.484364" y2="32.1055" gradientUnits="userSpaceOnUse">
<stop stop-opacity="0"/>
<stop offset="0.99"/>
</linearGradient>
<linearGradient id="paint2_linear_263_1289" x1="52.0702" y1="28.1574" x2="58.9695" y2="75.3497" gradientUnits="userSpaceOnUse">
<stop stop-opacity="0"/>
<stop offset="0.99"/>
</linearGradient>
<linearGradient id="paint3_linear_263_1289" x1="62.6667" y1="44.8077" x2="62.6936" y2="58.7917" gradientUnits="userSpaceOnUse">
<stop stop-opacity="0"/>
<stop offset="0.99"/>
</linearGradient>
<linearGradient id="paint4_linear_263_1289" x1="23.0398" y1="-8.34309" x2="27.3653" y2="19.679" gradientUnits="userSpaceOnUse">
<stop stop-opacity="0"/>
<stop offset="0.99"/>
</linearGradient>
<linearGradient id="paint5_linear_263_1289" x1="41.6549" y1="7.2838" x2="39.3875" y2="0.65638" gradientUnits="userSpaceOnUse">
<stop stop-opacity="0"/>
<stop offset="0.99"/>
</linearGradient>
<linearGradient id="paint6_linear_263_1289" x1="59.6013" y1="-4.30115" x2="27.6507" y2="-3.12569" gradientUnits="userSpaceOnUse">
<stop stop-opacity="0"/>
<stop offset="0.99"/>
</linearGradient>
<linearGradient id="paint7_linear_263_1289" x1="56.8241" y1="0.0827762" x2="60.0153" y2="26.7026" gradientUnits="userSpaceOnUse">
<stop offset="0.02" stop-color="white" stop-opacity="0"/>
<stop offset="0.32" stop-color="white" stop-opacity="0.39"/>
<stop offset="0.68" stop-color="white" stop-opacity="0.68"/>
<stop offset="1" stop-color="white"/>
</linearGradient>
<linearGradient id="paint8_linear_263_1289" x1="40.1099" y1="6.44637" x2="48.0239" y2="9.40701" gradientUnits="userSpaceOnUse">
<stop stop-opacity="0"/>
<stop offset="0.99"/>
</linearGradient>
<linearGradient id="paint9_linear_263_1289" x1="46.0215" y1="6.8411" x2="42.1802" y2="4.46971" gradientUnits="userSpaceOnUse">
<stop stop-opacity="0"/>
<stop offset="0.99"/>
</linearGradient>
</defs>
</svg>
