<svg width="46" height="64" viewBox="0 0 46 64" fill="none" xmlns="http://www.w3.org/2000/svg">
<path d="M19.1974 15.3171C18.0278 16.6835 18.4842 20.236 18.4842 20.236L19.6756 21.4493C20.1067 21.8437 20.6128 22.1472 21.1638 22.3419C21.7147 22.5365 22.2991 22.6182 22.8823 22.5822C23.4655 22.5462 24.0354 22.3931 24.5582 22.1321C25.081 21.8712 25.5458 21.5076 25.9251 21.0632C26.3044 20.6188 26.5904 20.1025 26.7659 19.5452C26.9415 18.9879 27.003 18.401 26.947 17.8194C26.8909 17.2378 26.7183 16.6735 26.4395 16.16C26.1607 15.6465 25.7814 15.1944 25.3242 14.8307L23.9414 13.8414C23.9414 13.8414 20.3615 13.9453 19.1974 15.3171Z" fill="#002239"/>
<path d="M22.4929 22.6292C21.4248 22.6304 20.3915 22.2495 19.5798 21.5552L18.3774 20.3337C18.3558 20.3126 18.3422 20.2846 18.3392 20.2545C18.3201 20.1069 17.8856 16.6254 19.0825 15.2263C20.2794 13.8271 23.7855 13.7151 23.9358 13.7096C23.9656 13.7082 23.9948 13.718 24.0178 13.7369L25.4005 14.7262C26.1009 15.3208 26.6018 16.1162 26.8354 17.0048C27.069 17.8934 27.024 18.8323 26.7065 19.6945C26.389 20.5567 25.8143 21.3005 25.0602 21.8254C24.3061 22.3503 23.409 22.6309 22.4902 22.6292H22.4929ZM18.607 20.1697L19.7657 21.3503C20.6216 22.0321 21.7091 22.3544 22.7983 22.2492C23.8875 22.144 24.8932 21.6194 25.6028 20.7864C26.3124 19.9533 26.6703 18.877 26.601 17.7849C26.5316 16.6928 26.0404 15.6704 25.2311 14.9339L23.8948 13.9801C23.4794 13.9965 20.3423 14.1714 19.2874 15.3984C18.2326 16.6254 18.5605 19.7626 18.607 20.1752V20.1697Z" fill="#00AEEF"/>
<path d="M21.6569 21.7769C24.0596 21.7769 26.0074 19.8291 26.0074 17.4264C26.0074 15.0237 24.0596 13.0759 21.6569 13.0759C19.2542 13.0759 17.3064 15.0237 17.3064 17.4264C17.3064 19.8291 19.2542 21.7769 21.6569 21.7769Z" fill="white"/>
<path d="M21.6568 21.9027C20.4868 21.8558 19.3818 21.3521 18.579 20.4997C17.7763 19.6472 17.3398 18.514 17.3632 17.3433C17.3866 16.1726 17.8681 15.0578 18.7044 14.2381C19.5406 13.4185 20.6648 12.9594 21.8358 12.9594C23.0067 12.9594 24.1309 13.4185 24.9672 14.2381C25.8034 15.0578 26.2849 16.1726 26.3083 17.3433C26.3318 18.514 25.8952 19.6472 25.0925 20.4997C24.2897 21.3521 23.1847 21.8558 22.0148 21.9027C21.8863 21.8972 21.7688 21.9027 21.6568 21.9027ZM21.6568 13.1908C20.6646 13.1885 19.7033 13.5355 18.9413 14.1709C18.1793 14.8063 17.6653 15.6896 17.4892 16.6661C17.3132 17.6425 17.4865 18.6497 17.9787 19.5112C18.4708 20.3727 19.2505 21.0335 20.181 21.3778C21.1115 21.7221 22.1335 21.7279 23.0679 21.3942C24.0022 21.0606 24.7894 20.4087 25.2913 19.5528C25.7932 18.697 25.9779 17.6918 25.813 16.7134C25.6482 15.7351 25.1442 14.8459 24.3895 14.2019C23.6278 13.5506 22.6589 13.1921 21.6568 13.1908Z" fill="#002239"/>
<path d="M22.8921 7.4653L23.9852 8.71961C24.682 9.58862 26.8928 8.97649 28.9232 7.35326C30.9536 5.73002 32.0412 3.69961 31.3389 2.83061L30.2458 1.57629L22.8921 7.4653Z" fill="#00AEEF"/>
<path d="M25.0181 9.25285C24.8077 9.27154 24.5957 9.24213 24.3983 9.16686C24.2009 9.09158 24.0231 8.97241 23.8786 8.81834L22.7855 7.56949C22.7711 7.55381 22.7605 7.53511 22.7544 7.51477C22.7482 7.49444 22.7467 7.47298 22.75 7.45199C22.7543 7.41537 22.773 7.38196 22.8019 7.35907L30.1556 1.47007C30.1831 1.44793 30.218 1.43728 30.2532 1.44033C30.2883 1.44339 30.3209 1.45992 30.3442 1.48647L31.4373 2.74078C32.197 3.68904 31.1257 5.74677 29.0051 7.45745C27.5705 8.61066 26.0702 9.25285 25.0181 9.25285ZM23.0888 7.48205L24.089 8.62979C24.7312 9.43047 26.9037 8.79375 28.8384 7.2443C30.7732 5.69485 31.869 3.7109 31.2214 2.91568L30.2185 1.7652L23.0888 7.48205Z" fill="#002239"/>
<path d="M27.8327 6.0977C29.8637 4.47112 30.9449 2.44672 30.2477 1.57608C29.5504 0.705437 27.3387 1.31825 25.3076 2.94483C23.2766 4.57141 22.1954 6.59581 22.8926 7.46645C23.5899 8.33709 25.8016 7.72428 27.8327 6.0977Z" fill="white"/>
<path d="M23.925 7.99857C23.7152 8.01626 23.5043 7.98527 23.3085 7.908C23.1127 7.83074 22.9375 7.70929 22.7964 7.55314C22.4247 7.09131 22.4876 6.34254 22.9685 5.44075C24.1684 3.45026 26.0383 1.95243 28.2427 1.21597C29.2264 0.942697 29.9725 1.04654 30.3441 1.50837C31.0956 2.44842 30.0244 4.51436 27.9093 6.20591C26.4719 7.34545 24.9743 7.99857 23.925 7.99857ZM29.2155 1.31708C28.9091 1.32272 28.6049 1.3696 28.311 1.45645C27.2411 1.7928 26.2476 2.33595 25.387 3.05509C24.4991 3.73209 23.7518 4.57587 23.1871 5.53913C22.7636 6.33435 22.6898 7.00659 22.9904 7.37824C23.6326 8.17893 25.8133 7.54494 27.7535 5.99002C29.6937 4.43511 30.7896 2.43749 30.1474 1.645C30.0274 1.52229 29.8813 1.42813 29.72 1.36947C29.5587 1.31082 29.3863 1.28918 29.2155 1.30615V1.31708Z" fill="#002239"/>
<path d="M12.3245 5.88654L13.5159 4.71967C14.2784 3.89986 16.4345 4.69781 18.3282 6.48228C20.222 8.26674 21.1375 10.3682 20.3723 11.1798L19.1972 12.344L12.3245 5.88654Z" fill="white"/>
<path d="M19.1975 12.4693C19.1652 12.4697 19.134 12.458 19.11 12.4365L12.24 5.97636C12.2153 5.95265 12.2006 5.92038 12.199 5.88618C12.1993 5.85225 12.2131 5.81983 12.2372 5.796L13.4287 4.6346C13.8304 4.20556 14.5819 4.16184 15.5411 4.51163C16.6121 4.94471 17.5878 5.58345 18.4132 6.39174C20.3862 8.25271 21.288 10.3924 20.4654 11.2669L19.2712 12.4338C19.2514 12.4537 19.2254 12.4662 19.1975 12.4693ZM12.5187 5.88345L19.1947 12.1687L20.2878 11.0756C20.9874 10.3323 20.0555 8.26091 18.2437 6.55843C17.4436 5.77326 16.4977 5.1522 15.4591 4.73024C14.612 4.42145 13.937 4.44331 13.6091 4.7931L12.5187 5.88345Z" fill="#002239"/>
<path d="M19.1847 12.3439C19.9494 11.5319 19.0336 9.42746 17.1392 7.64354C15.2448 5.85962 13.0892 5.07176 12.3245 5.8838C11.5598 6.69584 12.4756 8.80028 14.37 10.5842C16.2644 12.3681 18.42 13.156 19.1847 12.3439Z" fill="#00AEEF"/>
<path d="M18.3039 12.7996C17.9096 12.789 17.5203 12.7095 17.1534 12.5646C16.0817 12.1314 15.105 11.4927 14.2786 10.6845C13.422 9.90688 12.7258 8.96927 12.2291 7.92444C11.8192 6.98439 11.8192 6.22743 12.2291 5.79293C12.639 5.35842 13.3932 5.31197 14.3578 5.66449C15.4312 6.09738 16.4089 6.73713 17.2354 7.54733C18.0924 8.32347 18.7888 9.26028 19.2849 10.3046C19.6948 11.2447 19.6948 12.0044 19.2849 12.4389C19.1556 12.5642 19.0016 12.661 18.8326 12.7231C18.6636 12.7852 18.4835 12.8113 18.3039 12.7996ZM13.2074 5.69455C13.0653 5.6839 12.9226 5.70267 12.7881 5.74969C12.6536 5.79671 12.5303 5.87097 12.4258 5.96782C12.1006 6.31214 12.1198 6.98166 12.475 7.80421C12.958 8.81519 13.6338 9.72211 14.4644 10.4741C15.2637 11.2576 16.2088 11.8769 17.2463 12.2968C18.088 12.6056 18.7575 12.5701 19.0827 12.2394C19.4079 11.8951 19.3888 11.2256 19.0308 10.403C18.5498 9.39154 17.8748 8.48441 17.0441 7.73315C16.2449 6.94958 15.2997 6.33032 14.2622 5.91043C13.925 5.78144 13.5683 5.7112 13.2074 5.70275V5.69455Z" fill="#002239"/>
<path d="M12.9123 19.9621C12.4286 19.3227 12.0051 18.4072 12.803 17.9591C13.3496 17.6448 14.1694 17.8006 14.787 18.0574C15.4046 18.3143 15.9593 18.6696 16.6561 18.7461C18.6018 18.951 20.1212 16.9097 22.0068 17.3087C22.7146 17.4562 23.2092 17.9235 23.8787 18.1476C25.1194 18.5603 26.5294 18.052 27.7974 17.6858C29.0654 17.3196 30.8034 17.1939 31.5194 18.0383C32.2354 18.8827 31.3527 19.8884 30.6996 20.7382C29.8793 21.7918 29.3871 23.0634 29.284 24.3946C29.2594 24.769 29.2567 25.1762 28.9479 25.4877C28.6391 25.7992 28.0078 25.9304 27.4531 26.0342C24.0208 26.5808 20.1595 26.9634 17.2327 25.1789C15.2379 23.9437 14.1448 21.5744 12.9123 19.9621Z" fill="#68E1FD"/>
<path d="M45.4997 52.2494C45.4997 61.5735 35.3122 64.0001 22.7499 64.0001C10.1876 64.0001 0 61.568 0 52.2494C0 42.9309 10.1794 24.7365 22.7499 24.7365C35.3204 24.7365 45.4997 42.9254 45.4997 52.2494Z" fill="#68E1FD"/>
<path d="M24.8213 27.5043C26.4844 31.5215 27.8027 35.6729 28.7619 39.9136L33.7545 38.0007C33.7545 38.0007 30.0982 32.5927 27.9584 29.8599C25.8187 27.1272 24.8213 27.5043 24.8213 27.5043Z" fill="white"/>
<path d="M28.7619 40.0399C28.742 40.0393 28.7225 40.0346 28.7045 40.0263C28.6886 40.0181 28.6747 40.0065 28.6638 39.9924C28.6529 39.9782 28.6453 39.9618 28.6416 39.9443C27.6761 35.7109 26.356 31.5662 24.6956 27.5541C24.6888 27.5386 24.6853 27.5219 24.6853 27.505C24.6853 27.488 24.6888 27.4713 24.6956 27.4558C24.7018 27.4399 24.7113 27.4256 24.7236 27.4138C24.7359 27.402 24.7505 27.393 24.7666 27.3874C24.8787 27.3465 25.9144 27.0595 28.0459 29.784C30.1774 32.5086 33.8228 37.8702 33.8584 37.9221C33.8691 37.9379 33.8761 37.956 33.8789 37.9749C33.8818 37.9938 33.8803 38.0131 33.8748 38.0314C33.8692 38.0493 33.8596 38.0656 33.8468 38.0794C33.8341 38.0931 33.8184 38.1038 33.801 38.1106L28.8083 40.0235C28.794 40.0319 28.7783 40.0375 28.7619 40.0399ZM24.9934 27.6143C26.6044 31.5481 27.8948 35.6058 28.852 39.7475L33.5632 37.933C32.9894 37.0941 29.7784 32.402 27.8491 29.9398C26.2751 27.9121 25.3405 27.6361 25.0044 27.6143H24.9934Z" fill="#231F20"/>
<path d="M25.8215 27.1279C25.8215 27.1279 32.0575 30.1339 34.3393 32.8338L30.6146 35.5256C30.6146 35.5256 27.3982 29.1392 24.8213 27.5023L25.8215 27.1279Z" fill="white"/>
<path d="M30.6147 35.6534H30.5847C30.567 35.6492 30.5505 35.6411 30.5363 35.6298C30.5222 35.6184 30.5107 35.6041 30.5027 35.5878C30.4699 35.525 27.2726 29.2124 24.764 27.611C24.745 27.5981 24.7297 27.5805 24.7196 27.5599C24.7095 27.5393 24.705 27.5164 24.7066 27.4935C24.7096 27.4704 24.7187 27.4485 24.7332 27.4302C24.7476 27.4119 24.7668 27.3979 24.7886 27.3897L25.7888 27.0153C25.8043 27.0085 25.821 27.005 25.8379 27.005C25.8549 27.005 25.8716 27.0085 25.8871 27.0153C26.1413 27.1355 32.1724 30.0568 34.446 32.754C34.4571 32.767 34.4653 32.7823 34.47 32.7988C34.4747 32.8153 34.4759 32.8327 34.4733 32.8496C34.4716 32.8668 34.4663 32.8834 34.4578 32.8985C34.4494 32.9135 34.4379 32.9266 34.4241 32.9371L30.6994 35.6261C30.6755 35.6452 30.6454 35.6549 30.6147 35.6534ZM25.0919 27.5345C27.4502 29.2288 30.1884 34.4237 30.6585 35.3419L34.1563 32.8168C31.9565 30.3082 26.39 27.5454 25.8133 27.2639L25.0919 27.5345Z" fill="#231F20"/>
<path d="M30.6747 27.6449C29.1089 28.3638 24.3594 27.9511 23.3565 27.9511H17.7408C16.921 27.9511 13.1717 28.2982 14.3167 26.9562C14.4424 26.8086 14.6337 26.6829 14.7484 26.5435C15.0217 26.169 14.7648 25.7235 14.5544 25.319C13.6308 23.5807 16.3881 23.9224 17.8501 23.9224H27.2561C28.4476 23.9224 31.0163 23.4687 30.7294 24.8599C30.6665 25.1605 30.4561 25.4448 30.4807 25.7454C30.5272 26.1772 31.0628 26.5079 31.1639 26.9343C31.2349 27.2459 31.0436 27.4782 30.6747 27.6449Z" fill="white"/>
<path d="M27.1223 28.1942C26.0948 28.1942 25.0755 28.145 24.324 28.1095C23.895 28.0903 23.5561 28.0739 23.3648 28.0739H17.7409C17.6289 28.0739 17.4676 28.0739 17.2682 28.0903C15.7734 28.1477 14.2922 28.1559 14.019 27.5902C13.9206 27.3879 13.9889 27.1474 14.2212 26.8768C14.2879 26.8022 14.3611 26.7337 14.4398 26.6718C14.5171 26.6112 14.5876 26.5425 14.6502 26.4668C14.8716 26.1744 14.6693 25.7945 14.4726 25.4282L14.4453 25.3763C14.2157 24.9472 14.172 24.5974 14.3469 24.3322C14.7295 23.7145 16.0466 23.7528 17.208 23.7856H17.8502H27.2562C27.4694 23.7856 27.7345 23.7856 28.0132 23.7555C29.0079 23.6982 30.2486 23.6271 30.6995 24.1491C30.78 24.2494 30.8358 24.3672 30.8623 24.493C30.8889 24.6188 30.8856 24.7491 30.8525 24.8734C30.8209 24.9988 30.7789 25.1213 30.7268 25.2396C30.6485 25.3881 30.6064 25.5529 30.6038 25.7207C30.6604 25.9279 30.7707 26.1165 30.9235 26.2673C31.0878 26.442 31.211 26.6512 31.2843 26.8795C31.3416 27.1283 31.2843 27.4754 30.7377 27.735C29.978 28.1013 28.5406 28.1942 27.1223 28.1942ZM17.7491 27.8252H23.3648C23.5616 27.8252 23.9114 27.8416 24.335 27.8607C26.1058 27.9427 29.3987 28.0958 30.6202 27.5328C31.0684 27.3278 31.0738 27.1091 31.0383 26.9615C30.9723 26.7708 30.8661 26.5965 30.7268 26.4504C30.5395 26.2601 30.4105 26.0202 30.3551 25.7589C30.3479 25.5492 30.395 25.3411 30.4918 25.1549C30.5387 25.0519 30.5762 24.9449 30.6038 24.8351C30.6316 24.7487 30.6373 24.6567 30.6206 24.5675C30.6039 24.4783 30.5653 24.3946 30.5082 24.324C30.1365 23.8949 28.915 23.9633 28.0241 24.0152C27.7509 24.0316 27.4776 24.048 27.2535 24.048H17.8502C17.6535 24.048 17.4349 24.048 17.2026 24.048C16.2161 24.0207 14.8661 23.9824 14.56 24.4771C14.4453 24.6602 14.4808 24.9281 14.6639 25.2724L14.6912 25.3244C14.9044 25.7179 15.1667 26.2099 14.8497 26.6308C14.7758 26.7206 14.6925 26.8022 14.601 26.8741C14.5331 26.9277 14.4701 26.9872 14.4125 27.0517C14.3004 27.1829 14.1802 27.366 14.243 27.4945C14.4699 27.9619 16.4292 27.8853 17.249 27.8525C17.4594 27.8307 17.6261 27.8252 17.7409 27.8252H17.7491Z" fill="#002239"/>
<path d="M21.5011 53.6157V52.2493C21.0038 52.1127 20.5201 52.0116 20.0555 51.8503C19.1467 51.5625 18.3625 50.9748 17.8311 50.1834C17.3931 49.4922 17.1697 48.6868 17.1889 47.8688H19.856C19.979 48.8607 20.4627 49.5713 21.4957 49.8445V46.2237C20.9628 46.0679 20.4272 45.9231 19.8997 45.7536C19.3177 45.5915 18.7845 45.2883 18.3476 44.871C17.8905 44.4156 17.5892 43.8273 17.4868 43.1904C17.3267 42.4156 17.3844 41.6116 17.6535 40.8675C17.8487 40.3318 18.1599 39.8458 18.5647 39.4443C18.9696 39.0428 19.4581 38.7356 19.9954 38.5447C20.4373 38.4028 20.8871 38.2869 21.3426 38.1977C21.3918 38.1977 21.4437 38.1758 21.5066 38.1649V36.3558H24.0016V36.5307V38.0829C24.0016 38.2113 24.0398 38.2496 24.1628 38.2769C25.0165 38.4431 25.8156 38.8187 26.4883 39.37C27.1984 39.9541 27.6692 40.7789 27.811 41.6874C27.8547 41.936 27.8765 42.1875 27.9066 42.4498H25.193C25.1867 42.0794 25.072 41.719 24.8632 41.4131C24.6544 41.1071 24.3605 40.869 24.0179 40.7282V44.1086L24.3103 44.1769C25.0438 44.321 25.7581 44.5493 26.4391 44.8573C26.9507 45.0783 27.3924 45.4345 27.7169 45.8875C28.0414 46.3405 28.2364 46.8733 28.281 47.4288C28.4309 48.4595 28.1763 49.5083 27.5705 50.3555C27.071 51.05 26.3668 51.5707 25.5565 51.8449C25.0564 52.0198 24.5344 52.1345 23.9961 52.2821V53.6075L21.5011 53.6157ZM24.0043 46.7429V49.8882C24.4057 49.8271 24.7833 49.6591 25.0974 49.4018C25.6767 48.9263 25.8817 47.7431 25.0345 47.2156C24.7007 47.038 24.3567 46.8802 24.0043 46.7429ZM21.4902 43.5237V40.485C21.164 40.6274 20.8464 40.7889 20.5392 40.9687C19.8451 41.4305 19.7358 42.7121 20.6212 43.1548C20.8945 43.2997 21.1869 43.398 21.4902 43.5237Z" fill="#002239"/>
<path d="M14.7486 26.6657C14.721 26.6659 14.6942 26.6569 14.6724 26.64C14.6506 26.6232 14.6351 26.5995 14.6283 26.5728C14.6208 26.5409 14.6261 26.5074 14.6429 26.4793C14.6598 26.4512 14.6869 26.4308 14.7185 26.4224C14.7814 26.406 16.257 26.0425 19.0034 26.1027C19.0368 26.1027 19.0687 26.1159 19.0923 26.1395C19.1159 26.1631 19.1291 26.195 19.1291 26.2284C19.1291 26.2617 19.1159 26.2937 19.0923 26.3173C19.0687 26.3409 19.0368 26.3541 19.0034 26.3541C16.2953 26.294 14.8005 26.6602 14.7868 26.663L14.7486 26.6657Z" fill="#002239"/>
<path d="M30.3032 25.5509H30.2841C30.2458 25.5509 26.2369 24.9523 23.9442 25.2366C23.9114 25.2397 23.8786 25.2301 23.8526 25.2098C23.8267 25.1894 23.8096 25.1599 23.8048 25.1273C23.8009 25.0943 23.8103 25.0611 23.8307 25.035C23.8512 25.0089 23.8812 24.992 23.9141 24.9879C26.2397 24.7146 30.2813 25.2994 30.3223 25.3049C30.3523 25.3111 30.379 25.328 30.3974 25.3524C30.4158 25.3769 30.4247 25.4072 30.4223 25.4377C30.42 25.4682 30.4066 25.4968 30.3847 25.5182C30.3627 25.5395 30.3338 25.5521 30.3032 25.5536V25.5509Z" fill="#002239"/>
<path d="M27.7482 32.793C27.721 32.7934 27.6945 32.7847 27.6727 32.7684C27.6509 32.7521 27.6352 32.729 27.628 32.7028C27.2427 31.3362 25.9883 28.8108 25.9637 28.7862C25.9493 28.7568 25.947 28.7229 25.9572 28.6917C25.9674 28.6606 25.9894 28.6346 26.0184 28.6195C26.0329 28.612 26.0488 28.6074 26.065 28.6061C26.0813 28.6048 26.0977 28.6067 26.1132 28.6118C26.1287 28.6169 26.1431 28.6251 26.1554 28.6357C26.1678 28.6464 26.1778 28.6595 26.1851 28.6741C26.2397 28.778 27.4749 31.2406 27.8684 32.6345C27.8761 32.6663 27.8714 32.6999 27.8551 32.7284C27.8389 32.7568 27.8123 32.778 27.781 32.7875L27.7482 32.793Z" fill="#002239"/>
<path d="M31.6122 33.6865C31.59 33.6866 31.5683 33.6808 31.5491 33.6698C31.5299 33.6588 31.5139 33.6428 31.5029 33.6237C31.5029 33.6018 30.3087 31.5383 29.2757 30.5352C29.2637 30.5237 29.2542 30.5099 29.2477 30.4947C29.2412 30.4794 29.2378 30.463 29.2378 30.4464C29.2378 30.4298 29.2412 30.4133 29.2477 30.3981C29.2542 30.3828 29.2637 30.369 29.2757 30.3576C29.2992 30.3348 29.3305 30.3221 29.3632 30.3221C29.3958 30.3221 29.4272 30.3348 29.4506 30.3576C30.5109 31.3879 31.675 33.4159 31.7242 33.5034C31.7401 33.5321 31.7442 33.5659 31.7355 33.5976C31.7268 33.6293 31.7061 33.6563 31.6778 33.6729C31.6574 33.6829 31.6348 33.6876 31.6122 33.6865Z" fill="#002239"/>
</svg>
